<svg version="1.1" xmlns="http://www.w3.org/2000/svg" xmlns:xlink="http://www.w3.org/1999/xlink" width="75" height="100" viewBox="0 0 25.999999999999996 28" data-code="61710" data-tags="quote-right"><g fill="#bebebe" transform="scale(0.02734375 0.02734375)"><path d="M438.857 182.857v402.286c0 161.143-131.429 292.571-292.571 292.571h-36.571c-20 0-36.571-16.571-36.571-36.571v-73.143c0-20 16.571-36.571 36.571-36.571h36.571c80.571 0 146.286-65.714 146.286-146.286v-18.286c0-30.286-24.571-54.857-54.857-54.857h-128c-60.571 0-109.714-49.143-109.714-109.714v-219.429c0-60.571 49.143-109.714 109.714-109.714h219.429c60.571 0 109.714 49.143 109.714 109.714zM950.857 182.857v402.286c0 161.143-131.429 292.571-292.571 292.571h-36.571c-20 0-36.571-16.571-36.571-36.571v-73.143c0-20 16.571-36.571 36.571-36.571h36.571c80.571 0 146.286-65.714 146.286-146.286v-18.286c0-30.286-24.571-54.857-54.857-54.857h-128c-60.571 0-109.714-49.143-109.714-109.714v-219.429c0-60.571 49.143-109.714 109.714-109.714h219.429c60.571 0 109.714 49.143 109.714 109.714z" /></g></svg>