<svg xmlns="http://www.w3.org/2000/svg" width="24" height="24" viewBox="0 0 24 24">
  <path fill="#4E5E6C" fill-rule="evenodd" d="M12.9376747,5.20784115 L13.218082,5.225 C13.9235106,5.24530769 15.9309391,5.5 17.226082,7.36407692 C17.1215106,7.42584615 14.8346534,8.75261538 14.8595106,11.4797692 C14.8877963,14.7484615 17.7557963,15.829 17.7909391,15.8408462 C17.7737963,15.917 17.3417963,17.4003077 16.266082,18.9064615 C15.3677963,20.2323846 14.4266534,21.5286923 12.9317963,21.5523846 C11.4797963,21.5853846 10.9912248,20.7087692 9.32579627,20.7087692 C7.64493912,20.7087692 7.12465341,21.5286923 5.73179627,21.5853846 C4.30808198,21.637 3.2203677,20.1697692 2.28951055,18.8556923 C0.42865341,16.1725385 -1.01991802,11.2944615 0.922367696,7.975 C1.86351055,6.347 3.57951055,5.29861538 5.41379627,5.27069231 C6.83922484,5.24192308 8.16179627,6.22092308 9.03779627,6.22092308 C9.89665341,6.22092308 11.532082,5.04984615 13.218082,5.225 Z M13.236082,-3.55271368e-15 C13.3783677,1.27684615 12.8657963,2.53507692 12.1166534,3.45992308 C11.3349391,4.37038462 10.0843677,5.06676923 8.8663677,4.97707692 C8.70693912,3.74846154 9.32408198,2.442 10.0149391,1.64492308 C10.7957963,0.740384615 12.1517963,0.0473846154 13.236082,-3.55271368e-15 Z" transform="translate(3 1)"/>
</svg>
