<svg xmlns="http://www.w3.org/2000/svg" width="24" height="24" viewBox="0 0 24 24">
  <path fill="#021D49" fill-rule="evenodd" d="M8.10494923,0.647406043 C8.2996815,0.451615451 8.61626282,0.450757507 8.81205342,0.645489772 C9.00784401,0.840222037 9.00870195,1.15680336 8.81396969,1.35259396 L8.81396969,1.35259396 L2.202,7.99999999 L23,8 C23.2454599,8 23.4496084,8.17687516 23.4919443,8.41012437 L23.5,8.5 C23.5,8.77614237 23.2761424,9 23,9 L23,9 L2.202,8.99999999 L8.81396969,15.647406 C8.98706503,15.8214421 9.00561997,16.0909178 8.87009632,16.2854194 L8.81205342,16.3545102 C8.61626282,16.5492425 8.2996815,16.5483845 8.10494923,16.352594 L8.10494923,16.352594 L0.645489772,8.85259396 C0.451503409,8.65755332 0.451503409,8.34244668 0.645489772,8.14740604 L0.645489772,8.14740604 Z" transform="rotate(-90 14 10.5)"/>
</svg>
