<svg xmlns="http://www.w3.org/2000/svg" width="24" height="24" viewBox="0 0 24 24">
  <path fill="#021D49" fill-rule="evenodd" d="M22.9509595,8.48358209 C22.9509595,8.92366738 22.9509595,9.36375267 22.9509595,9.80127932 C22.9509595,10.8247335 22.9509595,11.8481876 22.9509595,12.8690832 C22.9509595,14.028145 22.9509595,15.1872068 22.9509595,16.3462687 C22.9509595,17.2059701 22.9509595,18.063113 22.9509595,18.9228145 C22.9509595,19.1044776 22.9509595,19.2835821 22.9509595,19.4652452 C22.9509595,19.4754797 22.9509595,19.4831557 22.9509595,19.4933902 C22.9509595,19.5778252 22.9432836,19.6597015 22.9381663,19.7415778 C22.933049,19.8157783 22.9560768,19.7313433 22.9432836,19.7108742 C22.9484009,19.7185501 22.933049,19.7773987 22.933049,19.7799574 C22.9228145,19.8362473 22.91258,19.8925373 22.8972281,19.9488273 C22.8742004,20.0383795 22.8486141,20.1253731 22.8179104,20.2098081 C22.8179104,20.2098081 22.7974414,20.2712154 22.7923241,20.273774 C22.8025586,20.2686567 22.8358209,20.1765458 22.8051173,20.245629 C22.7795309,20.2968017 22.7565032,20.3479744 22.7309168,20.3965885 C22.6848614,20.4810235 22.6362473,20.5603412 22.582516,20.6396588 C22.5697228,20.6575693 22.5569296,20.6754797 22.5441365,20.6933902 C22.5031983,20.7547974 22.6260128,20.596162 22.5518124,20.6831557 C22.5185501,20.7215352 22.4878465,20.7599147 22.4545842,20.7957356 C22.3906183,20.8648188 22.3215352,20.9313433 22.2498934,20.9927505 C22.2319829,21.0081023 22.2166311,21.0208955 22.1987207,21.0362473 C22.1245203,21.1002132 22.224307,21.0183369 22.224307,21.0183369 C22.2217484,21.0413646 22.1066098,21.1002132 22.0861407,21.1130064 C22.0119403,21.1616205 21.9326226,21.2051173 21.8533049,21.2460554 C21.8277186,21.2588486 21.8021322,21.2690832 21.7765458,21.2818763 C21.7560768,21.2921109 21.6895522,21.3100213 21.761194,21.2895522 C21.8328358,21.2690832 21.7637527,21.2895522 21.7432836,21.2946695 C21.7100213,21.3049041 21.6793177,21.3176972 21.6460554,21.3279318 C21.5539446,21.3586354 21.4592751,21.3842217 21.3646055,21.4021322 C21.3185501,21.4123667 21.2724947,21.4149254 21.2264392,21.4251599 C21.2392324,21.4226013 21.3492537,21.4123667 21.2571429,21.4200426 C21.221322,21.4226013 21.1855011,21.4251599 21.1522388,21.4277186 C21.1010661,21.4302772 21.052452,21.4328358 21.0012793,21.4328358 C20.8989339,21.4328358 20.7965885,21.4328358 20.6942431,21.4328358 C20.1159915,21.4328358 19.5377399,21.4328358 18.9594883,21.4328358 C18.0153518,21.4328358 17.0712154,21.4328358 16.1296375,21.4328358 C14.9910448,21.4328358 13.8550107,21.4328358 12.7164179,21.4328358 C11.5420043,21.4328358 10.3675906,21.4328358 9.19317697,21.4328358 C8.154371,21.4328358 7.11556503,21.4328358 6.07675906,21.4328358 C5.33219616,21.4328358 4.58507463,21.4328358 3.84051173,21.4328358 C3.54626866,21.4328358 3.25202559,21.4379531 2.95778252,21.4328358 C2.90916844,21.4328358 2.86311301,21.4302772 2.81449893,21.4277186 C2.79147122,21.4251599 2.7684435,21.4226013 2.74541578,21.4226013 C2.6533049,21.4149254 2.76332623,21.4251599 2.7761194,21.4277186 C2.67633262,21.4021322 2.57142857,21.3918977 2.47164179,21.3637527 C2.42814499,21.3509595 2.38464819,21.3381663 2.34115139,21.3228145 C2.31556503,21.31258 2.28742004,21.3023454 2.26183369,21.2946695 C2.24392324,21.2869936 2.17228145,21.2690832 2.24392324,21.2895522 C2.31556503,21.3100213 2.24648188,21.2921109 2.22857143,21.2818763 C2.20298507,21.2690832 2.17739872,21.2588486 2.15181237,21.2460554 C2.10575693,21.2230277 2.06226013,21.2 2.01876333,21.1744136 C1.98294243,21.1539446 1.78336887,21.0567164 1.78081023,21.0183369 C1.78081023,21.0183369 1.87803838,21.1002132 1.80639659,21.0362473 C1.78848614,21.0208955 1.77313433,21.0081023 1.75522388,20.9927505 C1.71428571,20.9569296 1.67334755,20.9185501 1.63240938,20.8801706 C1.5684435,20.8187633 1.51215352,20.7496802 1.4533049,20.6831557 C1.37910448,20.5987207 1.50191898,20.7547974 1.46098081,20.6933902 C1.44818763,20.6754797 1.43539446,20.6575693 1.42260128,20.6396588 C1.39189765,20.5936034 1.36119403,20.547548 1.33049041,20.4989339 C1.28187633,20.4170576 1.23837953,20.3326226 1.19744136,20.245629 C1.1641791,20.1765458 1.19744136,20.2712154 1.21023454,20.273774 C1.20511727,20.2712154 1.18464819,20.2098081 1.18464819,20.2098081 C1.1641791,20.1560768 1.14626866,20.1023454 1.13091684,20.0486141 C1.10533049,19.9616205 1.08486141,19.8695096 1.06950959,19.7799574 C1.06950959,19.7773987 1.05415778,19.7185501 1.05927505,19.7108742 C1.04904051,19.7313433 1.06950959,19.8157783 1.06439232,19.7415778 C1.05927505,19.6827292 1.05415778,19.6238806 1.05415778,19.565032 C1.05159915,19.5138593 1.05415778,19.4626866 1.05415778,19.4089552 C1.05415778,18.7948827 1.05415778,18.1808102 1.05415778,17.5667377 C1.05415778,16.4716418 1.05415778,15.3765458 1.05415778,14.2814499 C1.05415778,13.150533 1.05415778,12.0170576 1.05415778,10.8861407 C1.05415778,10.1620469 1.05415778,9.44051173 1.05415778,8.71641791 C1.05415778,8.64989339 1.05415778,8.58336887 1.05415778,8.51684435 C1.05415778,8.50660981 1.05415778,8.49381663 1.05415778,8.48358209 C1.05415778,8.42473348 1.05671642,8.36332623 1.05927505,8.30447761 C1.06183369,8.28144989 1.06439232,8.25842217 1.06439232,8.23539446 C1.06950959,8.16119403 1.04648188,8.24307036 1.05927505,8.26609808 C1.04392324,8.24051173 1.08486141,8.1228145 1.08997868,8.09466951 C1.11044776,8.00511727 1.13347548,7.91812367 1.1641791,7.83113006 C1.17185501,7.81066098 1.19488273,7.7108742 1.21023454,7.70319829 C1.18464819,7.71343284 1.1641791,7.80298507 1.20511727,7.71599147 C1.21791045,7.69040512 1.22814499,7.66481876 1.24093817,7.63923241 C1.28443497,7.55479744 1.33049041,7.47292111 1.38422175,7.39360341 C1.39445629,7.37569296 1.4533049,7.27334755 1.47121535,7.27078891 C1.47121535,7.27078891 1.38933902,7.36801706 1.4533049,7.29637527 C1.47121535,7.27590618 1.4891258,7.25287846 1.50703625,7.23240938 C1.5684435,7.16076759 1.63496802,7.09424307 1.70405117,7.03027719 C1.73731343,6.99957356 1.77057569,6.97142857 1.80383795,6.94328358 C1.87803838,6.8793177 1.7782516,6.96119403 1.7782516,6.96119403 C1.7782516,6.95351812 1.85245203,6.90746269 1.86012793,6.90234542 C1.93432836,6.85117271 2.01108742,6.80511727 2.08784648,6.76162047 C2.13134328,6.73859275 2.17739872,6.71556503 2.22345416,6.69509595 C2.24392324,6.68486141 2.31044776,6.66695096 2.23880597,6.68742004 C2.15948827,6.71044776 2.27206823,6.6771855 2.28742004,6.66950959 C2.37953092,6.63624733 2.47164179,6.60810235 2.5663113,6.58763326 C2.61236674,6.57739872 2.65586354,6.56716418 2.70191898,6.55948827 C2.7249467,6.554371 2.74797441,6.554371 2.77100213,6.54925373 C2.63539446,6.57995736 2.74029851,6.554371 2.77356077,6.55181237 C2.8554371,6.54413646 2.93731343,6.54157783 3.01918977,6.54157783 C3.17270789,6.54157783 3.32366738,6.54157783 3.4771855,6.54157783 C4.02985075,6.54157783 4.58251599,6.54157783 5.13518124,6.54157783 C5.45501066,6.54157783 5.77228145,6.54157783 6.09211087,6.54157783 C6.32238806,6.54157783 6.51940299,6.38294243 6.58592751,6.16545842 C6.72921109,5.70234542 6.8750533,5.23667377 7.01833689,4.77356077 C7.1130064,4.46908316 7.20767591,4.16460554 7.30234542,3.86012793 C7.33049041,3.77057569 7.35863539,3.68102345 7.38678038,3.59147122 C7.39189765,3.57100213 7.39957356,3.55309168 7.40469083,3.5326226 C7.40724947,3.5249467 7.4098081,3.51727079 7.41236674,3.50959488 C7.41236674,3.48144989 7.44051173,3.44307036 7.45586354,3.41492537 C7.47377399,3.38422175 7.49424307,3.35351812 7.51215352,3.3228145 C7.56076759,3.24093817 7.49680171,3.33560768 7.49424307,3.34072495 C7.50703625,3.29466951 7.59147122,3.23326226 7.62729211,3.2 C7.67078891,3.16162047 7.66055437,3.12835821 7.6196162,3.20255864 C7.62985075,3.18464819 7.67334755,3.1641791 7.691258,3.15394456 C7.71684435,3.13859275 7.73987207,3.12324094 7.76801706,3.11044776 C7.78848614,3.10021322 7.80895522,3.08997868 7.83198294,3.07974414 C7.81151386,3.08742004 7.79360341,3.09509595 7.77313433,3.10277186 C7.80383795,3.06950959 7.89850746,3.05927505 7.94200426,3.04904051 C7.95479744,3.04648188 7.96503198,3.04392324 7.97782516,3.04136461 C8.03411514,3.03113006 8.0238806,3.03113006 7.94712154,3.04136461 C7.96759062,3.03113006 8.01364606,3.03624733 8.03667377,3.0336887 C8.05714286,3.0336887 8.08017058,3.0336887 8.10063966,3.03113006 C8.18763326,3.03113006 8.27462687,3.03113006 8.35906183,3.03113006 C8.81449893,3.03113006 9.2673774,3.03113006 9.7228145,3.03113006 C11.0865672,3.03113006 12.4503198,3.03113006 13.8140725,3.03113006 C14.3411514,3.03113006 14.8656716,3.03113006 15.3927505,3.03113006 C15.5334755,3.03113006 15.6742004,3.03113006 15.8149254,3.03113006 C15.8430704,3.03113006 15.873774,3.03113006 15.901919,3.03113006 C15.9223881,3.03113006 15.9454158,3.03113006 15.9658849,3.0336887 C15.9914712,3.0336887 16.034968,3.03113006 16.0554371,3.04136461 C16.034968,3.03880597 16.0119403,3.03624733 15.9914712,3.0336887 C16.0093817,3.03624733 16.0272921,3.04136461 16.0452026,3.04392324 C16.091258,3.05415778 16.1987207,3.06695096 16.2319829,3.10021322 C16.2115139,3.09253731 16.1936034,3.08486141 16.1731343,3.0771855 C16.1936034,3.08742004 16.2140725,3.09765458 16.2371002,3.10788913 C16.2575693,3.11812367 16.2780384,3.13091684 16.2985075,3.14371002 C16.3189765,3.1565032 16.3727079,3.18208955 16.3855011,3.20255864 C16.3420043,3.12835821 16.3343284,3.16162047 16.3778252,3.2 C16.421322,3.23837953 16.4597015,3.28443497 16.5006397,3.32537313 C16.5134328,3.35095949 16.5339019,3.37910448 16.5518124,3.41236674 C16.5671642,3.43795309 16.5953092,3.47889126 16.6004264,3.50959488 C16.5850746,3.41492537 16.5773987,3.45074627 16.5876333,3.4891258 C16.5927505,3.50191898 16.5953092,3.51727079 16.6004264,3.53006397 C16.6055437,3.54797441 16.6132196,3.5684435 16.6183369,3.58891258 C16.6899787,3.81663113 16.7616205,4.04690832 16.8307036,4.27462687 C17.0149254,4.86311301 17.1965885,5.45159915 17.3808102,6.04264392 C17.3936034,6.08358209 17.4063966,6.12452026 17.4191898,6.16289979 C17.4857143,6.37782516 17.6827292,6.53901919 17.9130064,6.53901919 C18.6089552,6.53901919 19.3049041,6.53901919 20.0034115,6.53901919 C20.3257996,6.53901919 20.6481876,6.53901919 20.9705757,6.53901919 C20.9987207,6.53901919 21.0268657,6.53901919 21.0550107,6.53901919 C21.1317697,6.53901919 21.2085288,6.54925373 21.2852878,6.55181237 C21.3441365,6.554371 21.2366738,6.54413646 21.2366738,6.54413646 C21.2571429,6.54925373 21.2827292,6.55181237 21.3057569,6.554371 C21.3518124,6.56204691 21.3953092,6.57228145 21.4413646,6.58251599 C21.5130064,6.60042644 21.5846482,6.61833689 21.65629,6.64392324 C21.6946695,6.65671642 21.7304904,6.67206823 21.7688699,6.68486141 C21.8379531,6.71044776 21.7560768,6.66695096 21.7407249,6.67206823 C21.7509595,6.66950959 21.7918977,6.69509595 21.8021322,6.70021322 C21.9454158,6.76673774 22.0759062,6.84861407 22.2063966,6.93816631 C22.2857143,6.99445629 22.1833689,6.91769723 22.1833689,6.91769723 C22.1910448,6.91769723 22.2268657,6.95351812 22.2345416,6.95863539 C22.2678038,6.98678038 22.3010661,7.01748401 22.3343284,7.04818763 C22.3982942,7.10959488 22.4597015,7.17356077 22.5185501,7.24008529 C22.5287846,7.25287846 22.5390192,7.26567164 22.5518124,7.27846482 C22.6183369,7.35522388 22.5620469,7.26823028 22.5441365,7.26567164 C22.5620469,7.26567164 22.610661,7.36034115 22.6208955,7.37569296 C22.6695096,7.44989339 22.715565,7.52665245 22.7565032,7.60597015 C22.7769723,7.64690832 22.7948827,7.68784648 22.8153518,7.72622601 C22.7948827,7.64690832 22.8230277,7.74925373 22.828145,7.75948827 C22.8588486,7.83880597 22.884435,7.9206823 22.9049041,8.00511727 C22.9151386,8.04861407 22.9253731,8.09466951 22.9356077,8.14072495 C22.9381663,8.16119403 22.9637527,8.30959488 22.9509595,8.22771855 C22.9535181,8.25842217 22.9560768,8.2891258 22.9586354,8.31727079 C22.9484009,8.3761194 22.9509595,8.42985075 22.9509595,8.48358209 M23.9744136,8.48358209 C23.9692964,7.70831557 23.6648188,6.95351812 23.1172708,6.39829424 C22.5722814,5.84818763 21.817484,5.53091684 21.0447761,5.51812367 C20.3078891,5.50788913 19.5710021,5.51812367 18.8366738,5.51812367 C18.7138818,5.51812367 18.5291475,5.51812367 18.2824707,5.51812367 C17.9355215,4.40255864 17.7304904,3.74328358 17.6673774,3.54029851 C17.593177,3.29978678 17.5266525,3.05415778 17.3910448,2.83923241 C17.0686567,2.32750533 16.5108742,2.02046908 15.9070362,2.01251438 C15.8302772,2.01251438 15.7560768,2.01251438 15.6793177,2.01251438 C15.2264392,2.01251438 14.7735608,2.01251438 14.3206823,2.01251438 C12.926226,2.01251438 11.5343284,2.01251438 10.1398721,2.01251438 C9.61023454,2.01251438 9.08315565,2.01251438 8.55351812,2.01251438 C8.10831557,2.01251438 7.69637527,2.00511727 7.2793177,2.21236674 C6.84434968,2.42985075 6.55010661,2.83923241 6.40682303,3.29466951 C6.33773987,3.51727079 6.26865672,3.73731343 6.19957356,3.95991471 C6.0750533,4.36247335 5.91604526,4.88102345 5.72254944,5.51556503 C4.69109266,5.51556503 3.91790453,5.51556503 3.40298507,5.51556503 C2.891258,5.51556503 2.38720682,5.52324094 1.90362473,5.7228145 C1.04904051,6.07846482 0.383795309,6.78720682 0.133049041,7.68784648 C-0.0255863539,8.26353945 0.0255863539,8.90319829 0.0255863539,9.49680171 C0.0255863539,10.4793177 0.0255863539,11.4643923 0.0255863539,12.4469083 C0.0255863539,13.6315565 0.0255863539,14.8187633 0.0255863539,16.0034115 C0.0255863539,16.9245203 0.0255863539,17.8430704 0.0255863539,18.7641791 C0.0255863539,18.9842217 0.0255863539,19.2017058 0.0255863539,19.4217484 C0.0255863539,19.971855 0.148400853,20.5091684 0.427292111,20.9876333 C0.903198294,21.803838 1.73987207,22.3283582 2.67121535,22.4409382 C2.83752665,22.4614072 2.99872068,22.4614072 3.16503198,22.4614072 C3.68443497,22.4614072 4.20127932,22.4614072 4.7206823,22.4614072 C5.63411514,22.4614072 6.54754797,22.4614072 7.46353945,22.4614072 C8.6021322,22.4614072 9.74072495,22.4614072 10.8793177,22.4614072 C12.0716418,22.4614072 13.2639659,22.4614072 14.4537313,22.4614072 C15.5283582,22.4614072 16.6029851,22.4614072 17.6750533,22.4614072 C18.4605544,22.4614072 19.2460554,22.4614072 20.0315565,22.4614072 C20.3565032,22.4614072 20.6814499,22.4639659 21.0089552,22.4614072 C21.817484,22.45629 22.6132196,22.126226 23.1658849,21.5326226 C23.6852878,20.9748401 23.9744136,20.2430704 23.9769723,19.480597 C23.9795309,18.9535181 23.9769723,18.4264392 23.9769723,17.8993603 C23.9769723,16.8272921 23.9769723,15.7526652 23.9769723,14.680597 C23.9769723,13.5189765 23.9769723,12.3599147 23.9769723,11.1982942 C23.9769723,10.4076759 23.9769723,9.61705757 23.9769723,8.82643923 C23.9769723,8.71385928 23.9769723,8.59872068 23.9769723,8.48614072 M7.59402985,10.2925373 C9.10362473,8.46567164 11.7287846,7.75692964 13.9522388,8.5782516 C15.0678038,8.9901919 16.0170576,9.72196162 16.7078891,10.6891258 C17.3884861,11.6434968 17.7441365,12.8179104 17.7518124,13.9846482 C17.7492537,14.3044776 17.7185501,14.6217484 17.669936,14.9364606 C17.3117271,17.2392324 15.4413646,19.1684435 13.1590618,19.6187633 C11.9462687,19.8592751 10.7053305,19.7134328 9.57953092,19.2017058 C8.54072495,18.7309168 7.6554371,17.9198294 7.06950959,16.947548 C6.46055437,15.9394456 6.17142857,14.7317697 6.26609808,13.5573561 C6.36332623,12.3496802 6.8238806,11.2264392 7.59402985,10.2925373 Z M11.3487167,18.6816155 L11.3344682,18.6865194 C11.3282047,18.6922303 11.347548,18.698678 11.3936034,18.6848614 L11.3618574,18.6848614 L11.3618574,18.6848614 L11.3487167,18.6816155 Z M13.8247167,18.3586155 L13.8217167,18.3596155 C13.8120211,18.3646814 13.8115064,18.3647261 13.8157658,18.3627121 L13.8247167,18.3586155 Z M13.8712278,18.3401468 L13.8467167,18.3496155 C13.8691689,18.3411613 13.8797466,18.3366408 13.8712278,18.3401468 Z M9.08827292,17.7202559 L9.11385928,17.7394456 L9.11385928,17.7394456 L9.13071666,17.7526155 L9.11257996,17.7381663 L9.11257996,17.7381663 L9.08827292,17.7202559 L9.08827292,17.7202559 Z M7.32071666,13.3176155 L7.3210951,13.3217569 L7.31771666,13.3376155 L7.32071666,13.3176155 Z M15.7667167,11.1086155 L15.768829,11.1113006 L15.7707167,11.1146155 L15.7667167,11.1086155 Z M8.27974414,11.0678038 C8.22686567,11.1053305 8.22629709,11.115565 8.2416489,11.1060886 L8.24871666,11.0996155 L8.27974414,11.0678038 L8.27974414,11.0678038 Z M13.8243816,9.61076169 L13.8317167,9.61461548 L13.8498934,9.62217484 L13.8498934,9.62217484 C13.9463905,9.65945781 13.8003916,9.59711066 13.8243816,9.61076169 Z M14.2336887,4.81449893 C14.5202559,4.81449893 14.7326226,5.04989339 14.7454158,5.32622601 C14.758209,5.60255864 14.5023454,5.83795309 14.2336887,5.83795309 L14.2336887,5.83795309 L9.7663113,5.83795309 C9.47974414,5.83795309 9.2673774,5.60511727 9.25458422,5.32622601 C9.24179104,5.04989339 9.49765458,4.81449893 9.7663113,4.81449893 L9.7663113,4.81449893 Z M7.64776119,12.1424307 L7.56436863,12.3723288 C7.50675195,12.5341862 7.4533049,12.6968017 7.41236674,12.8639659 C7.37910448,12.9995736 7.35095949,13.1351812 7.32793177,13.2733475 C7.32537313,13.2989339 7.30490405,13.3552239 7.31257996,13.3782516 L7.31257996,13.3782516 L7.31769723,13.347548 C7.31513859,13.3603412 7.31513859,13.3705757 7.31257996,13.3833689 C7.30490405,13.4422175 7.29978678,13.5010661 7.29466951,13.5599147 C7.27164179,13.8336887 7.27164179,14.1100213 7.29211087,14.3837953 C7.29722814,14.4554371 7.30490405,14.5245203 7.31257996,14.596162 L7.31257996,14.596162 L7.31371666,14.6106155 L7.31257996,14.5987207 C7.30746269,14.6157783 7.31371713,14.6453447 7.31997157,14.6707415 L7.32793177,14.7036247 C7.35095949,14.8289979 7.37398721,14.954371 7.40469083,15.0797441 C7.46609808,15.3381663 7.54797441,15.5863539 7.64776119,15.8345416 C7.66055437,15.8652452 7.67334755,15.8959488 7.68869936,15.9266525 C7.71428571,15.9829424 7.7424307,16.0392324 7.77057569,16.0955224 C7.82686567,16.2055437 7.88571429,16.3130064 7.94968017,16.4204691 C8.01364606,16.5304904 8.08528785,16.6405117 8.15948827,16.7454158 C8.19275053,16.7940299 8.2336887,16.8759062 8.27974414,16.9091684 L8.27671666,16.9056155 L8.26171666,16.8856155 L8.27974414,16.9091684 L8.27974414,16.9091684 C8.29765458,16.9270789 8.31044776,16.9449893 8.32579957,16.9628998 C8.48955224,17.1624733 8.66609808,17.3492537 8.85799574,17.5206823 C8.91172708,17.5692964 8.96545842,17.6179104 9.0217484,17.6639659 C9.04221748,17.6818763 9.06268657,17.6997868 9.08571429,17.7176972 L9.08571429,17.7176972 C9.11897655,17.7637527 9.19317697,17.7995736 9.23667377,17.8302772 C9.28784648,17.8660981 9.33901919,17.901919 9.3901919,17.9351812 C9.60511727,18.0759062 9.83283582,18.203838 10.0682303,18.3113006 C10.1040512,18.3266525 10.1398721,18.3420043 10.175693,18.3599147 L10.1717167,18.3576155 L10.1628998,18.3547974 C10.0554371,18.3138593 10.2422175,18.393177 10.175693,18.3599147 L10.1727167,18.3586155 L10.2588486,18.3928571 L10.2588486,18.3928571 L10.3547974,18.4289979 C10.4724947,18.4724947 10.5927505,18.5108742 10.7130064,18.5441365 C10.8409382,18.5799574 10.9688699,18.610661 11.0993603,18.6362473 C11.1633262,18.6464819 11.2247335,18.6592751 11.2886994,18.6695096 C11.2972281,18.6703625 11.3091684,18.6732054 11.3221511,18.6763326 L11.3492264,18.681832 L11.3492264,18.681832 L11.3808102,18.6823028 C11.6469083,18.7130064 11.915565,18.7257996 12.1842217,18.715565 C12.3249467,18.7104478 12.4682303,18.7002132 12.6089552,18.6848614 C12.6319829,18.6823028 12.6550107,18.6797441 12.6780384,18.6771855 C12.6550107,18.6797441 12.6345416,18.6823028 12.6115139,18.6848614 C12.6371002,18.6925373 12.6908316,18.6746269 12.7164179,18.6695096 L12.7164179,18.6695096 L12.8878465,18.638806 C13.1462687,18.5876333 13.4021322,18.5159915 13.6503198,18.4264392 C13.7142857,18.4034115 13.7782516,18.3778252 13.8422175,18.3522388 L13.8217167,18.3596155 L13.8322216,18.3565952 L13.8322216,18.3565952 L13.8417167,18.3516155 L13.8337167,18.3546155 L13.8447761,18.3496802 C13.8601279,18.3432836 13.8754797,18.336887 13.8908316,18.3301706 L13.936887,18.308742 C14.049467,18.2550107 14.1620469,18.1987207 14.2695096,18.1398721 C14.3872068,18.0733475 14.5023454,18.0042644 14.6149254,17.930064 C14.6609808,17.8993603 14.7070362,17.8686567 14.7530917,17.8353945 C14.7991471,17.8021322 14.8861407,17.761194 14.9168443,17.7151386 L14.9168443,17.7151386 L14.8917167,17.7326155 L14.919403,17.71258 C14.9321962,17.7023454 14.9449893,17.6914712 14.9577825,17.680597 L14.996162,17.6486141 C15.0422175,17.6102345 15.0882729,17.5692964 15.1343284,17.5283582 C15.221322,17.4515991 15.3057569,17.3697228 15.3876333,17.2852878 C15.4797441,17.1880597 15.5692964,17.0882729 15.65629,16.9859275 C15.6767591,16.9603412 15.6997868,16.9347548 15.7202559,16.9091684 L15.7202559,16.9091684 L15.7377167,16.8856155 L15.7228145,16.9066098 C15.7466951,16.8895522 15.7717129,16.8508884 15.7933191,16.8163942 L15.8226013,16.7710021 C15.9735608,16.561194 16.1066098,16.3385928 16.224307,16.1083156 C16.2575693,16.041791 16.2882729,15.9752665 16.3189765,15.908742 C16.3317697,15.8831557 16.3420043,15.8575693 16.3573561,15.8294243 C16.4034115,15.7117271 16.449467,15.5965885 16.4878465,15.4763326 C16.5697228,15.2255864 16.6311301,14.9646055 16.6746269,14.7036247 C16.6771855,14.6780384 16.6976546,14.624307 16.6899787,14.5987207 C16.6797441,14.6754797 16.6771855,14.6857143 16.6848614,14.6294243 C16.68742,14.6166311 16.68742,14.6063966 16.6899787,14.5936034 C16.6976546,14.5219616 16.7053305,14.4528785 16.7104478,14.3812367 C16.7206823,14.2507463 16.7257996,14.1176972 16.7257996,13.9872068 C16.7257996,13.8490405 16.7206823,13.7134328 16.7206823,13.5701493 C16.715565,13.5061834 16.7104478,13.4396588 16.7027719,13.3731343 C16.6976546,13.3501066 16.6950959,13.3270789 16.6925373,13.3040512 C16.6515991,13.0405117 16.5927505,12.7820896 16.5108742,12.5287846 C16.4673774,12.3982942 16.421322,12.2703625 16.3675906,12.1398721 C16.3547974,12.1091684 16.3420043,12.0784648 16.3266525,12.0477612 L16.3266525,12.0477612 L16.252452,11.8942431 C16.1347548,11.6639659 16.0017058,11.4413646 15.8533049,11.2289979 C15.8200426,11.1829424 15.7791045,11.0959488 15.733049,11.0652452 L15.733049,11.0652452 L15.7347167,11.0676155 C15.7202559,11.0498934 15.7093817,11.0371002 15.6985075,11.024307 L15.6665245,10.9859275 C15.5872068,10.891258 15.5053305,10.8017058 15.4208955,10.7121535 C15.3287846,10.6149254 15.2315565,10.5228145 15.1317697,10.4332623 C15.0882729,10.3948827 15.0473348,10.3590618 15.003838,10.3232409 C14.9782516,10.3027719 14.9526652,10.2797441 14.9270789,10.2592751 C14.9091684,10.2464819 14.891258,10.2311301 14.8733475,10.2183369 L14.8817167,10.2246155 L14.8989339,10.2375267 L14.8989339,10.2375267 L14.9245203,10.2567164 C14.891258,10.2081023 14.806823,10.1697228 14.7607676,10.1364606 C14.7147122,10.1031983 14.6686567,10.0724947 14.6226013,10.041791 C14.5176972,9.97526652 14.4127932,9.91130064 14.3053305,9.84989339 C14.1876333,9.78336887 14.0673774,9.72196162 13.9445629,9.66567164 C13.9138593,9.65287846 13.8831557,9.63752665 13.852452,9.62473348 L13.852452,9.62473348 L13.8317167,9.61461548 L13.7705757,9.59147122 L13.7705757,9.59147122 L13.691258,9.56076759 C13.4430704,9.46865672 13.1872068,9.39701493 12.9287846,9.34328358 C12.8597015,9.32793177 12.7906183,9.31513859 12.7215352,9.30490405 C12.6959488,9.30234542 12.6396588,9.28187633 12.6166311,9.28955224 C12.6933902,9.29978678 12.7036247,9.30234542 12.6473348,9.29466951 L12.6473348,9.29466951 L12.6115139,9.28955224 C12.4835821,9.27420043 12.3530917,9.26396588 12.2226013,9.25884861 C11.9488273,9.24861407 11.6750533,9.25884861 11.4012793,9.28955224 C11.3833689,9.28955224 11.3654584,9.29211087 11.347548,9.29466951 C11.3066098,9.29978678 11.3245203,9.29722814 11.396162,9.2869936 C11.3705757,9.2793177 11.3168443,9.29722814 11.291258,9.30234542 C11.2221748,9.31513859 11.1530917,9.32793177 11.0840085,9.34072495 C10.9663113,9.36375267 10.8486141,9.39189765 10.7309168,9.42515991 C10.6029851,9.46098081 10.4776119,9.49936034 10.3547974,9.54541578 C10.2908316,9.5684435 10.2268657,9.59402985 10.1603412,9.62217484 C10.1398721,9.63240938 10.119403,9.64008529 10.0989339,9.65031983 C9.86353945,9.75778252 9.6358209,9.88315565 9.41833689,10.0238806 C9.35181237,10.0673774 9.28784648,10.1108742 9.2238806,10.1569296 C9.18294243,10.1850746 9.11641791,10.2183369 9.08827292,10.2567164 L9.08827292,10.2567164 L9.08571429,10.2592751 L9.00895522,10.3232409 C8.96545842,10.3590618 8.92196162,10.3948827 8.88102345,10.4332623 C8.69168443,10.6046908 8.51002132,10.7889126 8.34626866,10.9859275 L8.34626866,10.9859275 L8.27206823,11.0780384 C8.26652452,11.0848614 8.26083866,11.0906894 8.25557925,11.0954039 L8.24871666,11.0996155 L8.23435205,11.1148069 C8.22023217,11.1339493 8.20705994,11.1554608 8.19464582,11.1760246 L8.15948827,11.2315565 C8.08784648,11.3313433 8.02132196,11.4362473 7.95735608,11.5411514 C7.88827292,11.6588486 7.82430704,11.7765458 7.76289979,11.8968017 C7.73731343,11.9479744 7.71172708,11.9991471 7.68869936,12.0503198 L7.68869936,12.0503198 L7.65287846,12.1296375 L7.65287846,12.1296375 C7.67846482,12.0605544 7.59914712,12.2473348 7.64776119,12.1424307 Z"/>
</svg>
