<svg xmlns="http://www.w3.org/2000/svg" width="24" height="24" viewBox="0 0 24 24">
  <path fill="#021D49" fill-rule="evenodd" d="M9.7953194,15.5071098 C9.45250897,15.1642994 9.11037151,14.8221619 8.76681223,14.4786026 C8.02532751,13.7371179 7.28122271,12.9930131 6.53973799,12.2515284 C6.36943231,12.0812227 6.19650655,11.9082969 6.02620087,11.7379913 C5.83231441,11.5441048 5.47598253,11.5283843 5.28471616,11.7379913 C5.09344978,11.9475983 5.07772926,12.2724891 5.28471616,12.479476 C5.7510917,12.9458515 6.21484716,13.409607 6.68122271,13.8759825 C7.42270742,14.6174672 8.16681223,15.3615721 8.90829694,16.1030568 C9.07860262,16.2733624 9.25152838,16.4462882 9.42183406,16.6165939 C9.6209607,16.8157205 9.96157205,16.8183406 10.1633188,16.6165939 C10.4462882,16.3336245 10.7318777,16.0480349 11.0148472,15.7650655 C11.6934498,15.0864629 12.3746725,14.4052402 13.0532751,13.7266376 C13.8786026,12.90131 14.70131,12.0786026 15.5266376,11.2532751 C16.2366812,10.5432314 16.9467249,9.83318777 17.6567686,9.1231441 C18.0026201,8.77729258 18.358952,8.43930131 18.6943231,8.08558952 C18.6995633,8.08034934 18.7048035,8.07510917 18.7100437,8.069869 C18.9039301,7.87598253 18.9196507,7.51965066 18.7100437,7.32838428 C18.5004367,7.1371179 18.1755459,7.12139738 17.968559,7.32838428 C17.6855895,7.61135371 17.4,7.89694323 17.1170306,8.17991266 C16.4384279,8.85851528 15.7572052,9.53973799 15.0786026,10.2183406 C14.2532751,11.0436681 13.4305677,11.8663755 12.6052402,12.6917031 C11.8951965,13.4017467 11.1851528,14.1117904 10.4751092,14.8218341 L9.7953194,15.5071098 Z"/>
</svg>
