<svg xmlns="http://www.w3.org/2000/svg" width="24" height="24" viewBox="0 0 24 24">
  <path fill="#021D49" fill-rule="evenodd" d="M10.0912743,0.141549277 C12.4467328,-0.217402688 14.8493529,0.107488141 17.0161651,1.10312133 C19.0493529,2.03849251 20.7943311,3.5712436 22.0179119,5.44460605 C23.2781739,7.37299032 23.9462962,9.66294666 23.9489162,11.9660034 C23.9489162,12.7074881 23.8781739,13.4489729 23.7445494,14.1773571 C23.2676935,16.7869641 21.871187,19.2157851 19.8773005,20.9607633 C17.9593966,22.6376191 15.5593966,23.6620733 13.023152,23.892641 C10.4947678,24.1232087 7.90088131,23.5153484 5.73406908,22.1869641 C3.53319572,20.8402392 1.82751886,18.8044314 0.858086545,16.4175318 C-0.14016673,13.9651301 -0.265930922,11.1642567 0.472933707,8.62539207 C1.10175467,6.46644011 2.34891624,4.49089425 4.0336324,3.00530474 C5.73406908,1.50661478 7.84847956,0.484780718 10.0912743,0.141549277 Z M13.4549547,22.7934265 L13.44,22.797 L13.455604,22.7929605 C13.4580789,22.792296 13.4575671,22.7925557 13.4549547,22.7934265 Z M7.69461245,22.0307748 C7.69235138,22.0298658 7.69307706,22.0301332 7.69584992,22.0312026 L7.706,22.035 Z M5.26071936,20.5952878 L5.274,20.605 L5.26291168,20.5964642 C5.25839719,20.5932024 5.25824441,20.5932559 5.26071936,20.5952878 Z M3.31,18.63 L3.32096864,18.643296 L3.32096864,18.643296 L3.333,18.659 L3.32620882,18.6498462 L3.32620882,18.6498462 L3.31,18.63 Z M17.9436761,7.32058858 C18.150663,7.11360168 18.4755538,7.1293222 18.6851608,7.32058858 C18.8947678,7.51185495 18.8790472,7.86818683 18.6851608,8.06207329 C18.6799206,8.06731347 18.6746804,8.07255364 18.6694403,8.07779382 C18.3340691,8.43150561 17.9777372,8.76949687 17.6318857,9.1153484 L17.6318857,9.1153484 L15.5017547,11.2454794 C14.6764272,12.0708069 13.8537197,12.8935143 13.0283922,13.7188419 C12.3497896,14.3974445 11.6685669,15.0786672 10.9899643,15.7572698 C10.7069948,16.0402392 10.4214053,16.3258288 10.1384359,16.6087982 C9.93668917,16.8105449 9.59607781,16.8079248 9.39695117,16.6087982 L9.39695117,16.6087982 L6.65633982,13.8681868 C6.18996427,13.4018113 5.72620882,12.9380558 5.25983327,12.4716803 C5.05284637,12.2646934 5.06856689,11.9398026 5.25983327,11.7301956 C5.45109965,11.5205886 5.80743152,11.5363091 6.00131799,11.7301956 C6.17162366,11.9005012 6.34454943,12.073427 6.5148551,12.2437327 L6.5148551,12.2437327 L9.77043652,15.4993141 L10.4502263,14.8140384 C11.16027,14.1039947 11.8703136,13.393951 12.5803573,12.6839074 C13.4056848,11.8585798 14.2283922,11.0358724 15.0537197,10.2105449 C15.7323224,9.53194229 16.4135451,8.85071958 17.0921477,8.17211696 C17.3751171,7.88914753 17.6607066,7.60355801 17.9436761,7.32058858 Z M1.1366721,13.4289157 C1.13739652,13.434963 1.13801244,13.4401598 1.13843589,13.4438297 Z M20.612,5.273 L20.618,5.28 L20.643,5.31 L20.6524582,5.31825961 C20.661483,5.32437315 20.6630841,5.32066136 20.6412137,5.29926398 L20.612,5.273 Z M18.6144184,3.28565408 L18.6448588,3.30509467 C18.6756429,3.32388597 18.700507,3.33618434 18.6144184,3.28565408 Z M16.1960778,1.88128727 L16.236,1.893 L16.2514128,1.89696196 C16.2709374,1.90053689 16.2694403,1.89775639 16.1960778,1.88128727 Z M10.4685669,1.1411126 L10.4240254,1.14766281 C9.87904724,1.22626543 9.33930925,1.34678945 8.81005161,1.50661478 C8.55066296,1.58259731 8.29651449,1.66906019 8.04498611,1.76600343 C7.97948393,1.78958421 7.91398174,1.81578508 7.84847956,1.84198596 C7.81703851,1.85508639 7.78297737,1.86818683 7.74891624,1.88128727 C7.6336324,1.90486805 7.5078682,1.98871085 7.40044462,2.03849251 C6.91834855,2.26382002 6.4545931,2.52320867 6.00917825,2.81141827 C5.78647082,2.95552308 5.57162366,3.10486805 5.35939659,3.26469338 C5.3358158,3.28303399 5.29913458,3.30399469 5.27555379,3.33019556 C5.22315205,3.37211696 5.16813021,3.41403836 5.11572847,3.45857984 C5.01878524,3.53718246 4.921842,3.61840517 4.82751886,3.70224797 C4.43188567,4.04809949 4.05721318,4.4201519 3.71136165,4.81840517 C3.62227869,4.92058858 3.53319572,5.02539207 3.44673283,5.13281565 C3.41005161,5.17735714 3.37599048,5.22189862 3.33668917,5.26906019 C3.31310838,5.29002089 3.29214768,5.32408203 3.27380707,5.3502829 C3.11660183,5.56250998 2.96463676,5.77735714 2.82053196,6.00006456 C2.52970227,6.44547941 2.27293371,6.90923487 2.0476062,7.39133094 C2.01616515,7.46207329 1.9847241,7.53019556 1.95328305,7.59831784 C1.93756253,7.63499906 1.8406193,7.81840517 1.91660183,7.68216063 L1.915,7.684 L1.8630356,7.79666815 C1.84702395,7.83664874 1.83246791,7.87789086 1.81820299,7.91874481 L1.77511711,8.03849251 C1.68079397,8.29002089 1.59433109,8.54678945 1.51572847,8.80355801 C1.35852323,9.32495539 1.2406193,9.85945321 1.15939659,10.3991912 C1.15153633,10.4437327 1.13843589,10.4935143 1.13843589,10.543296 C1.13057563,10.603558 1.12271537,10.66382 1.11747519,10.724082 C1.10175467,10.8577065 1.09127432,10.9887108 1.08079397,11.1223353 C1.05983327,11.4026846 1.04935292,11.683034 1.04935292,11.9660034 C1.04935292,12.3249554 1.06507344,12.6812873 1.09389441,13.0349991 C1.10437475,13.1424226 1.1148551,13.2498462 1.12795554,13.3572698 C1.12795554,13.3572698 1.12999339,13.3738637 1.13232235,13.3929806 L1.133875,13.4062751 L1.133875,13.4062751 L1.134,13.413 L1.13712585,13.4276846 C1.13974593,13.4453702 1.14294826,13.4675682 1.14479203,13.4804018 L1.14629615,13.4908943 C1.16987694,13.6559598 1.1986979,13.8210253 1.23013895,13.9860908 C1.36114331,14.6620733 1.55240969,15.3275755 1.80131799,15.9694969 C1.82227869,16.0245187 1.84323938,16.0795405 1.86682017,16.1345624 C1.86906596,16.139054 1.87516167,16.1533842 1.88162405,16.1689367 L1.888,16.186 L1.89115719,16.192105 L1.897,16.207 L1.894,16.202 C1.8999341,16.2149983 1.90128616,16.218008 1.90142366,16.218092 L1.92609965,16.2760471 L1.92609965,16.2760471 L1.97162366,16.3782305 C2.03974593,16.5275755 2.1078682,16.6743004 2.18123065,16.8184052 C2.32795554,17.1092349 2.48516078,17.3948244 2.65546646,17.6725536 C2.81005161,17.9267021 2.97511711,18.1729903 3.15066296,18.4140384 C3.19782454,18.4821606 3.2476062,18.5476628 3.29738786,18.613165 L3.29738786,18.613165 L3.31,18.63 L3.309,18.628 L3.32358873,18.6418889 C3.32941115,18.6490699 3.33552468,18.6576094 3.34105598,18.6656638 L3.35502978,18.6865274 C3.44411275,18.7991912 3.5358158,18.911855 3.63013895,19.0218986 C4.01005161,19.4699336 4.4266455,19.8865274 4.86944026,20.2690602 C4.98210401,20.3686235 5.10000794,20.4655667 5.21791187,20.5598899 C5.23887257,20.5756104 5.25721318,20.5913309 5.27817388,20.6070515 L5.27817388,20.6070515 L5.28,20.609 L5.29127432,20.6175318 C5.32140532,20.6398026 5.35153633,20.6627283 5.38166733,20.6856541 L5.47206034,20.7537764 C5.7078682,20.9267021 5.94891624,21.0891475 6.19520445,21.2437327 C6.68516078,21.5502829 7.20917825,21.8463528 7.75153633,22.0533397 L7.724,22.042 L7.721,22.041 L7.741,22.049 L7.72953676,22.0442496 C7.73674009,22.0470301 7.74411147,22.049864 7.75071134,22.0523772 L7.76725685,22.0585798 C7.80393807,22.0743004 7.83799921,22.0900209 7.87468043,22.1031213 C7.94542279,22.1319423 8.01616515,22.1607633 8.08952759,22.1869641 C8.22315205,22.2367458 8.3567765,22.2839074 8.49040096,22.3284488 C8.77337039,22.422772 9.06158,22.5066148 9.3497896,22.5773571 C9.64323938,22.6507196 9.93930925,22.7109816 10.2353791,22.7607633 C10.3139817,22.7738637 10.3925844,22.7869641 10.471187,22.7974445 C10.47493,22.7978188 10.4808653,22.7986743 10.4878776,22.7997896 L10.51,22.803 L10.4895276,22.8000646 L10.4895276,22.8000646 C10.570376,22.8150365 10.5613928,22.8128976 10.5339545,22.8078255 L10.511,22.803 L10.5484796,22.8089074 L10.5484796,22.8089074 L10.6074315,22.8157851 C10.7541564,22.8341257 10.8982612,22.8498462 11.0449861,22.8603266 C11.6633267,22.9101082 12.2842874,22.9101082 12.902628,22.8603266 C13.0624534,22.8498462 13.2196586,22.8315056 13.3794839,22.813165 C13.3847241,22.8124164 13.391408,22.8110262 13.3986495,22.8093074 L13.421,22.803 L13.3978245,22.8105449 C13.4096149,22.8079248 13.4233704,22.8059598 13.4371258,22.8043222 L13.4764272,22.8000646 C13.5550298,22.7895842 13.6336324,22.7764838 13.712235,22.7633833 C14.010925,22.7136017 14.3043748,22.6533397 14.5978245,22.5799772 C14.8886542,22.5092349 15.1742438,22.4253921 15.4572132,22.3310689 C15.6039381,22.2839074 15.750663,22.2315056 15.8947678,22.1764838 C15.9655101,22.1502829 16.0388726,22.1214619 16.1096149,22.092641 C16.1462962,22.0769205 16.3323224,22.0061781 16.1986979,22.0559598 C16.741056,21.8489729 17.2650734,21.552903 17.7550298,21.2463528 C18.001318,21.0917676 18.242366,20.9293222 18.4781739,20.7563964 C18.5489162,20.7039947 18.6222787,20.6515929 18.690401,20.5965711 L18.676,20.607 L18.660884,20.6205306 C18.6237934,20.6508049 18.7090281,20.5827031 18.7485751,20.5510778 L18.7637634,20.5389292 C18.871187,20.4498462 18.9786106,20.3633833 19.0834141,20.2716803 C19.5209686,19.8917676 19.9323224,19.4804139 20.3096149,19.0402392 C20.4065582,18.9249554 20.5035014,18.8070515 20.5978245,18.6891475 C20.6000703,18.6865274 20.6036529,18.6821963 20.6078924,18.6770096 L20.6083049,18.6760471 L20.609,18.674 L20.61,18.673 L20.616,18.665 L20.621,18.659 L20.6764272,18.584344 C20.6947678,18.5594532 20.7137634,18.5339074 20.732759,18.5083615 L20.7890909,18.432379 C20.9620167,18.1965711 21.1244621,17.9555231 21.2764272,17.7066148 C21.4467328,17.4315056 21.6039381,17.1485362 21.750663,16.8603266 C21.8292656,16.7031213 21.9052481,16.543296 21.9786106,16.3808506 C21.9943311,16.3415493 22.0126717,16.302248 22.0310123,16.2603266 C22.0325095,16.255835 22.0382844,16.2415047 22.0446704,16.2259522 L22.047,16.218 L22.051,16.21 L22.052,16.207 L22.054,16.202 L22.058,16.192 L22.06,16.186 L22.0896368,16.1165493 L22.0896368,16.1165493 L22.1305756,16.0140384 C22.3847241,15.3642567 22.5812307,14.6935143 22.712235,14.0096715 C22.7489162,13.8315056 22.7777372,13.6507196 22.8039381,13.4699336 C22.8046867,13.461699 22.8062908,13.4474757 22.8078949,13.4339245 L22.808,13.427 L22.809,13.421 L22.81,13.414 L22.8106754,13.4139722 L22.811,13.406 L22.812,13.401 L22.811,13.402 C22.8122261,13.3991759 22.8123865,13.3982364 22.8122261,13.3999627 L22.8222787,13.3127283 C22.832759,13.2210253 22.8432394,13.1293222 22.8510996,13.0376191 C22.8851608,12.6812873 22.9008813,12.3249554 22.9008813,11.9660034 L22.9008813,11.9660034 L22.8973879,11.6840044 C22.8927299,11.4967167 22.8834141,11.3109816 22.8694403,11.1275755 C22.8589599,10.993951 22.8458595,10.8629467 22.832759,10.7293222 C22.8248988,10.6690602 22.8196586,10.6087982 22.8117983,10.5459161 C22.8117983,10.511855 22.801318,10.4725536 22.7960778,10.4384925 C22.7148551,9.89875452 22.5969512,9.3642567 22.442366,8.84023923 C22.3663835,8.58347067 22.2799206,8.32670212 22.1855975,8.07517373 C22.1384359,7.94678945 22.0965145,7.80268465 22.0310123,7.68478072 C22.1069948,7.81840517 22.0179119,7.65333967 22.0021913,7.61665845 C21.9733704,7.55115626 21.9445494,7.48827417 21.9157285,7.42539207 C21.693021,6.943296 21.4362525,6.47692046 21.1480429,6.03150561 C21.0039381,5.81141827 20.851973,5.59395102 20.6947678,5.38172395 C20.6685669,5.34766281 20.642366,5.30050124 20.610925,5.27168028 L20.643,5.31 L20.6415533,5.30916209 L20.6292656,5.29526107 L20.6292656,5.29526107 L20.618,5.28 L20.612,5.273 L20.566056,5.21305583 L20.566056,5.21305583 L20.5008813,5.13281565 C20.4196586,5.03325233 20.3384359,4.9363091 20.2572132,4.84198596 C19.9113617,4.44373268 19.5393093,4.07168028 19.1436761,3.72320867 C19.0414927,3.63150561 18.9366892,3.54242264 18.8292656,3.45595976 C18.7768638,3.41403836 18.7244621,3.36949687 18.6694403,3.32757548 C18.6510996,3.31447504 18.632759,3.29613443 18.6144184,3.28565408 L18.6144184,3.28565408 C18.4021913,3.12320867 18.1847241,2.9712436 17.9646368,2.8271388 C17.5192219,2.5363091 17.0554665,2.27692046 16.5759905,2.05159294 C16.4607066,1.99657111 16.321842,1.90748814 16.1960778,1.88128727 L16.236,1.893 C16.2269078,1.89163012 16.2196739,1.88977391 16.212715,1.88774964 L16.1934577,1.88128727 C16.1620167,1.86818683 16.1279555,1.85508639 16.0965145,1.84198596 L16.0965145,1.84198596 L15.9340691,1.77910386 C15.6825407,1.68216063 15.4283922,1.59569775 15.1716237,1.51709513 C14.6502263,1.35988989 14.1183486,1.23674578 13.5786106,1.15552308 C13.531449,1.14766281 13.4842874,1.14242264 13.4371258,1.13456238 L13.447,1.136 L13.4345058,1.13456238 C13.4043748,1.13063225 13.3742438,1.12735714 13.3441127,1.12408203 L13.2537197,1.11360168 C13.1200953,1.10050124 12.9890909,1.08740081 12.8554665,1.07692046 C12.5751171,1.05595976 12.2921477,1.04285932 12.0117983,1.04285932 C11.7235887,1.04023923 11.4353791,1.05071958 11.1471695,1.07168028 C11.0083049,1.08216063 10.8694403,1.09264098 10.7305756,1.1083615 C10.6598333,1.11622177 10.5864708,1.12670212 10.5157285,1.13456238 L10.5157285,1.13456238 L10.506,1.135 L10.5131084,1.13456238 L10.5466272,1.12929165 C10.5311052,1.1311555 10.463151,1.14059698 10.482584,1.1385498 L10.507,1.135 L10.4685669,1.1411126 L10.4685669,1.1411126 Z M13.4371258,1.13456238 L13.447,1.136 L13.4676502,1.1385498 C13.4967997,1.14162057 13.329328,1.11884185 13.4371258,1.13456238 Z M5.297,20.623 L5.28,20.609 L5.277,20.607 L5.29322984,20.6205262 L5.29322984,20.6205262 L5.297,20.623 Z M20.634,18.643 C20.6523651,18.6217204 20.6577122,18.6146622 20.6083049,18.6760471 L20.634,18.643 Z" transform="translate(.025 .008)"/>
</svg>
