<svg xmlns="http://www.w3.org/2000/svg" width="24" height="24" viewBox="0 0 24 24">
  <path fill="#021D49" fill-rule="evenodd" d="M12,0 C18.6256523,0 24,5.37227586 24,12 C24,18.6281379 18.6256552,24 12,24 C5.37062069,24 0,18.6281379 0,12 C0,5.37227586 5.37062069,0 12,0 Z M12,0.827586207 C5.82827324,0.827586207 0.827586207,5.82874974 0.827586207,12 C0.827586207,18.1715167 5.82812593,23.1724138 12,23.1724138 C18.1694759,23.1724138 23.1724138,18.1701908 23.1724138,12 C23.1724138,5.83007669 18.1693267,0.827586207 12,0.827586207 Z M11.5862069,5.84731034 C11.8147385,5.84731034 12,6.03257183 12,6.26110345 L12,6.26110345 L12,11.8200998 L18.0215418,17.4362929 C18.1886652,17.5921661 18.1977852,17.8540066 18.041912,18.02113 C17.8860387,18.1882534 17.6241982,18.1973735 17.4570748,18.0415002 L17.4570748,18.0415002 L11.3039734,12.3026037 C11.2200607,12.2243397 11.1724138,12.1147458 11.1724138,12 L11.1724138,12 L11.1724138,6.26110345 C11.1724138,6.03257183 11.3576753,5.84731034 11.5862069,5.84731034 Z"/>
</svg>
