<svg xmlns="http://www.w3.org/2000/svg" width="24" height="24" viewBox="0 0 24 24">
  <path fill="#021D49" fill-rule="evenodd" d="M19,0 L19,6.5 L24,6.5 L24,23.7 L20.3,20 L5,20 L5,13.5 L3.7,13.5 L0,17.2 L0,0 L19,0 Z M23,7.5 L6,7.5 L6,19 L20.7,19 L23,21.3 L23,7.5 Z M21.5,16.5 L21.5,17.5 L7.5,17.5 L7.5,16.5 L21.5,16.5 Z M21.5,14 L21.5,15 L7.5,15 L7.5,14 L21.5,14 Z M18,1 L1,1 L1,14.8 L3.3,12.5 L5,12.5 L5,6.5 L18,6.5 L18,1 Z M21.5,11.5 L21.5,12.5 L7.5,12.5 L7.5,11.5 L21.5,11.5 Z M21.5,9 L21.5,10 L7.5,10 L7.5,9 L21.5,9 Z" transform="translate(0 .15)"/>
</svg>
