<svg xmlns="http://www.w3.org/2000/svg" width="24" height="24" viewBox="0 0 24 24">
  <path fill="#4E5E6C" fill-rule="evenodd" d="M3.216,10.896 C4.03733744,10.896 4.61333168,10.7653346 4.944,10.504 C5.27466832,10.2426654 5.44,9.90933536 5.44,9.504 C5.44,9.20533184 5.36800072,8.9493344 5.224,8.736 C5.07999928,8.5226656 4.8880012,8.3360008 4.648,8.176 C4.4079988,8.0159992 4.13066824,7.87200064 3.816,7.744 C3.50133176,7.61599936 3.17866832,7.49333392 2.848,7.376 C2.5279984,7.25866608 2.21066824,7.12800072 1.896,6.984 C1.58133176,6.83999928 1.30133456,6.66400104 1.056,6.456 C0.81066544,6.24799896 0.61066744,5.9973348 0.456,5.704 C0.30133256,5.4106652 0.224,5.0506688 0.224,4.624 C0.224,3.86666288 0.4506644,3.24533576 0.904,2.76 C1.3573356,2.27466424 2.01599568,1.96800064 2.88,1.84 L2.88,4.08562073e-14 L4.208,4.08562073e-14 L4.208,1.792 C4.67733568,1.81333344 5.11466464,1.87199952 5.52,1.968 C5.92533536,2.06400048 6.24533216,2.15466624 6.48,2.24 L6.176,3.488 C5.91999872,3.39199952 5.60000192,3.29333384 5.216,3.192 C4.83199808,3.09066616 4.35200288,3.04 3.776,3.04 C3.1359968,3.04 2.6426684,3.16266544 2.296,3.408 C1.9493316,3.65333456 1.776,4 1.776,4.448 C1.776,4.69333456 1.82666616,4.90133248 1.928,5.072 C2.02933384,5.24266752 2.17599904,5.394666 2.368,5.528 C2.56000096,5.661334 2.78666536,5.7813328 3.048,5.888 C3.30933464,5.9946672 3.5999984,6.10666608 3.92,6.224 C4.33600208,6.3840008 4.7306648,6.54933248 5.104,6.72 C5.4773352,6.89066752 5.80533192,7.0959988 6.088,7.336 C6.37066808,7.5760012 6.59733248,7.86133168 6.768,8.192 C6.93866752,8.52266832 7.024,8.92266432 7.024,9.392 C7.024,10.1493371 6.79466896,10.7599977 6.336,11.224 C5.87733104,11.6880023 5.1680048,11.9786661 4.208,12.096 L4.208,14.16 L2.88,14.16 L2.88,12.144 C2.1333296,12.1226666 1.52533568,12.0400007 1.056,11.896 C0.58666432,11.7519993 0.23466784,11.6160006 1.70530257e-13,11.488 L0.4,10.288 C0.7200016,10.4373341 1.10399776,10.5759994 1.552,10.704 C2,10.8320006 2.55466336,10.896 3.216,10.896 Z" transform="translate(8.464 5.584)"/>
</svg>
