<svg xmlns="http://www.w3.org/2000/svg" width="24" height="24" viewBox="0 0 24 24">
  <path fill="#4E5E6C" fill-rule="evenodd" d="M2.95652171,13 C3.48479406,13 3.91304341,13.4281935 3.91304341,13.956397 L3.913,18.742 L9.46475365,13.3633344 C9.84410645,12.995737 10.4496681,13.0052265 10.8173135,13.3845298 C11.1849589,13.7638332 11.1754682,14.3693159 10.7961154,14.7369133 L5.187,20.172 L10.1304345,20.1729774 C10.6587069,20.1729774 11.0869562,20.6011709 11.0869562,21.1293744 C11.0869562,21.6575778 10.6587069,22.0857714 10.1304345,22.0857714 L4.39321731,22.0857714 C3.1347826,22.0857714 2,20.9904942 2,19.8200669 L2,13.956397 C2,13.4281935 2.42824936,13 2.95652171,13 Z M20,2 C21.1045695,2 22,2.8954305 22,4 L22,20 C22,21.1045695 21.1045695,22 20,22 L13.9296875,22 C13.3774028,22 12.9296875,21.5522847 12.9296875,21 C12.9296875,20.4477153 13.3774028,20 13.9296875,20 L20,20 L20,4 L4,4 L4,10.0063477 C4,10.5586324 3.55228475,11.0063477 3,11.0063477 C2.44771525,11.0063477 2,10.5586324 2,10.0063477 L2,4 C2,2.8954305 2.8954305,2 4,2 L20,2 Z" transform="rotate(180 12 12.043)"/>
</svg>
