<svg xmlns="http://www.w3.org/2000/svg" width="24" height="24" viewBox="0 0 24 24">
  <path fill="#4E5E6C" fill-rule="evenodd" d="M10,0 C4.48,0 0,4.48 0,10 C0,15.52 4.48,20 10,20 C15.52,20 20,15.52 20,10 C20,4.48 15.52,0 10,0 L10,0 Z M14.4964286,5.50357143 C14.2183138,5.22545661 13.7674005,5.22545661 13.4892857,5.50357143 L10,8.99285714 L10,8.99285714 L6.51071429,5.50357143 C6.23259947,5.22545661 5.78168625,5.22545661 5.50357143,5.50357143 C5.22545661,5.78168625 5.22545661,6.23259947 5.50357143,6.51071429 L8.99285714,10 L8.99285714,10 L5.50357143,13.4892857 C5.22545661,13.7674005 5.22545661,14.2183138 5.50357143,14.4964286 C5.78168625,14.7745434 6.23259947,14.7745434 6.51071429,14.4964286 L10,11.0071429 L10,11.0071429 L13.4892857,14.4964286 C13.7674005,14.7745434 14.2183138,14.7745434 14.4964286,14.4964286 C14.7745434,14.2183138 14.7745434,13.7674005 14.4964286,13.4892857 L11.0071429,10 L11.0071429,10 L14.4964286,6.51071429 C14.7745434,6.23259947 14.7745434,5.78168625 14.4964286,5.50357143 Z" transform="translate(2 2)"/>
</svg>
