<svg xmlns="http://www.w3.org/2000/svg" width="24" height="24" viewBox="0 0 24 24">
  <path fill="#021D49" fill-rule="evenodd" d="M10.0010321,1.43415243 L11.1588369,0.454467614 C12.1686589,-0.163265592 13.3301184,-0.5 14.5,-0.5 C17.8561424,-0.5 20.5,2.14385763 20.5,5.5 C20.5,6.70790842 20.179476,7.87226439 19.5421521,9.05829846 C18.372495,11.2349831 16.8073383,12.8471955 11.7851886,17.4110103 L9.99872285,19.0249896 L9.66340984,18.7197392 L8.21412924,17.4003928 C3.21520546,12.8673881 1.63867051,11.2461469 0.465928005,9.07301931 C-0.176767377,7.8820852 -0.5,6.71302451 -0.5,5.5 C-0.5,2.14385763 2.14385763,-0.5 5.5,-0.5 C6.66988159,-0.5 7.83134109,-0.163265592 8.84116308,0.454467614 L8.90441689,0.500316029 L10.0010321,1.43415243 Z M5.5,0.5 C2.69614237,0.5 0.5,2.69614237 0.5,5.5 C0.5,6.53892866 0.778717082,7.54698651 1.34595974,8.59810443 C2.44102433,10.6272924 3.9888292,12.2189889 8.88659016,16.6602608 L10.0012775,17.6750107 L11.1137351,16.6699649 C16.0323318,12.2002499 17.5693016,10.6170718 18.6612752,8.58495296 C19.223649,7.53839801 19.5,6.53450783 19.5,5.5 C19.5,2.69614237 17.3038576,0.5 14.5,0.5 C13.5170065,0.5 12.5356015,0.784532365 11.7439219,1.261668 L10,2.74672648 L8.28655126,1.28761779 C7.43935862,0.777319107 6.47045345,0.5 5.5,0.5 Z" transform="translate(2 3)"/>
</svg>
