<svg xmlns="http://www.w3.org/2000/svg" width="24" height="24" viewBox="0 0 24 24">
  <path fill="#4E5E6C" fill-rule="evenodd" d="M7.8164062,14.9912109 C9.2143554,14.9912109 10.3826293,15.9547729 10.7181396,17.25 L10.7181396,17.25 L21.25,17.25 C21.6640625,17.25 22,17.5859375 22,18 C22,18.4140625 21.6640625,18.75 21.25,18.75 L21.25,18.75 L10.7181396,18.75 C10.3826293,20.0452271 9.2143554,21.0087891 7.8164062,21.0087891 C6.4176636,21.0087891 5.2493286,20.0452271 4.9137573,18.75 L4.9137573,18.75 L2.75,18.75 C2.3359375,18.75 2,18.4140625 2,18 C2,17.5859375 2.3359375,17.25 2.75,17.25 L2.75,17.25 L4.9137573,17.25 C5.2493286,15.9547729 6.4176635,14.9912109 7.8164062,14.9912109 Z M7.8164063,16.4912109 C6.984375,16.4912109 6.3076172,17.1679687 6.3076172,18 C6.3076172,18.8320313 6.984375,19.5087891 7.8164063,19.5087891 C8.6474609,19.5087891 9.3242188,18.8320313 9.3242188,18 C9.3242188,17.1679687 8.647461,16.4912109 7.8164063,16.4912109 Z M16.741211,8.9912109 C18.0791387,8.9912109 19.2062587,9.87280638 19.5954166,11.0829902 L19.6438599,11.25 L21.25,11.25 C21.6640625,11.25 22,11.5859375 22,12 C22,12.3795573 21.7177192,12.6934679 21.3517388,12.7431505 L21.25,12.75 L19.6438598,12.75 C19.3082885,14.0452271 18.1399535,15.0087891 16.7412109,15.0087891 C15.4032832,15.0087891 14.2761632,14.1271936 13.8870053,12.9170098 L13.838562,12.75 L2.75,12.75 C2.3359375,12.75 2,12.4140625 2,12 C2,11.6204427 2.28228082,11.3065321 2.64826118,11.2568495 L2.75,11.25 L13.838562,11.25 C14.1741333,9.9547729 15.3424684,8.9912109 16.741211,8.9912109 Z M16.7412109,10.4912109 C15.9091796,10.4912109 15.2324218,11.1679687 15.2324218,12 C15.2324218,12.8320313 15.9091796,13.5087891 16.7412109,13.5087891 C17.5732422,13.5087891 18.25,12.8320312 18.25,12 C18.25,11.1679688 17.5732422,10.4912109 16.7412109,10.4912109 Z M10.3330078,2.9912109 C11.6709355,2.9912109 12.7980555,3.87280638 13.1872134,5.08299017 L13.2356567,5.25 L21.25,5.25 C21.6640625,5.25 22,5.5859375 22,6 C22,6.37955729 21.7177192,6.69346788 21.3517388,6.7431505 L21.25,6.75 L13.2356567,6.75 C12.9000854,8.0452271 11.7317504,9.0087891 10.3330078,9.0087891 C8.9950801,9.0087891 7.8679601,8.12719362 7.47880223,6.91700983 L7.4303589,6.75 L2.75,6.75 C2.3359375,6.75 2,6.4140625 2,6 C2,5.62044271 2.28228082,5.30653212 2.64826118,5.2568495 L2.75,5.25 L7.4303589,5.25 C7.7659302,3.9547729 8.9342652,2.9912109 10.3330078,2.9912109 Z M10.3330078,4.4912109 C9.5009766,4.4912109 8.8242188,5.1679687 8.8242188,6 C8.8242188,6.8320313 9.5009765,7.5087891 10.3330078,7.5087891 C11.1650391,7.5087891 11.8417969,6.8320313 11.8417969,6 C11.8417969,5.1679687 11.1650391,4.4912109 10.3330078,4.4912109 Z"/>
</svg>
