<svg xmlns="http://www.w3.org/2000/svg" width="24" height="24" viewBox="0 0 24 24">
  <g fill="none" fill-rule="evenodd" transform="translate(5 4)">
    <path fill="#FFF" d="M7,1 L7,7 L8,7 L8,5 L10,5 L10,7 L11,7 L11,5 L12,5 L12,7 L13,7 L13,6 L14,6 L14,11 L13,11 L13,13 L12,13 L12,15 L11,15 L11,14 L10,14 L10,15 L6,15 L6,14 L5,14 L5,13 L4,13 L4,12 L3,12 L3,10 L2,10 L2,9 L1,9 L1,7 L3,7 L3,8 L4,8 L4,9 L5,9 L5,1 L7,1 Z M12,9 L11,9 L11,13 L12,13 L12,9 Z M8,9 L7,9 L7,13 L8,13 L8,9 Z M10,9 L9,9 L9,13 L10,13 L10,9 Z"/>
    <path fill="#181A23" d="M13,13 L13,16 L11,16 L11,15 L12,15 L12,13 L13,13 Z M6,14 L6,15 L10,15 L10,16 L5,16 L5,14 L6,14 Z M11,14 L11,15 L10,15 L10,14 L11,14 Z M5,13 L5,14 L4,14 L4,13 L5,13 Z M14,11 L14,13 L13,13 L13,11 L14,11 Z M4,12 L4,13 L3,13 L3,12 L4,12 Z M8,9 L8,13 L7,13 L7,9 L8,9 Z M10,9 L10,13 L9,13 L9,9 L10,9 Z M12,9 L12,13 L11,13 L11,9 L12,9 Z M3,10 L3,12 L2,12 L2,10 L3,10 Z M15,6 L15,11 L14,11 L14,6 L15,6 Z M2,9 L2,10 L1,10 L1,9 L2,9 Z M1,7 L1,9 L0,9 L0,7 L1,7 Z M5,1 L5,9 L4,9 L4,8 L3,8 L3,7 L4,7 L4,1 L5,1 Z M8,1 L8,4 L12,4 L12,5 L11,5 L11,7 L10,7 L10,5 L8,5 L8,7 L7,7 L7,1 L8,1 Z M14,5 L14,6 L13,6 L13,7 L12,7 L12,5 L14,5 Z M3,6 L3,7 L1,7 L1,6 L3,6 Z M7,0 L7,1 L5,1 L5,0 L7,0 Z"/>
  </g>
</svg>
