<svg xmlns="http://www.w3.org/2000/svg" width="24" height="24" viewBox="0 0 24 24">
  <path fill="#4E5E6C" fill-rule="evenodd" d="M18,10 L18,20 C18,21.6522847 16.6522847,23 15,23 L3,23 C1.34771525,23 0,21.6522847 0,20 L0,10 C0,8.34771525 1.34771525,7 3,7 L3,6 C3,2.68771525 5.68771525,0 9,0 C12.3122847,0 15,2.68771525 15,6 L15,7 C16.6522847,7 18,8.34771525 18,10 Z M15,9 L13,9 L13,6 C13,3.79228475 11.2077153,2 9,2 C6.79228475,2 5,3.79228475 5,6 L5,9 L3,9 C2.45228475,9 2,9.45228475 2,10 L2,20 C2,20.5477153 2.45228475,21 3,21 L15,21 C15.5477153,21 16,20.5477153 16,20 L16,10 C16,9.45228475 15.5477153,9 15,9 Z M11.1,6 C11.1,4.84228475 10.1577153,3.9 9,3.9 C7.84228475,3.9 6.9,4.84228475 6.9,6 L6.9,7 L11.1,7 L11.1,6 Z M9,13 C10.1,13 11,13.9 11,15 C11,16.1 10.1,17 9,17 C7.9,17 7,16.1 7,15 C7,13.9 7.9,13 9,13 Z M9,1.9 C11.2622847,1.9 13.1,3.73771525 13.1,6 L13.1,9 L4.9,9 L4.9,6 C4.9,3.73771525 6.73771525,1.9 9,1.9 Z" transform="translate(3 1)"/>
</svg>
