<svg xmlns="http://www.w3.org/2000/svg" width="24" height="24" viewBox="0 0 24 24">
  <path fill="#4E5E6C" fill-rule="evenodd" d="M10,0 C4.48373056,0 0,4.48371435 0,9.99994528 C0,15.5161929 4.48373333,19.9999464 10,19.9999464 C10.2003533,20.002724 10.3867119,19.8974604 10.4877154,19.7244072 C10.5887189,19.5513539 10.5887189,19.3373222 10.4877154,19.1642689 C10.3867119,18.9912157 10.2003533,18.885952 10,18.8887855 C5.08422167,18.8887855 1.11111111,14.9156962 1.11111111,9.99994528 C1.11110822,5.08419996 5.08422,1.11110503 10,1.11110503 C14.91578,1.11110503 18.8888889,5.08419996 18.8888889,9.99994528 C18.8888889,11.8929071 18.2836456,13.6188544 17.2059461,15.0075134 C16.2079136,14.9104306 15.4199464,14.7724653 14.9007161,14.256107 C14.3238161,13.6823879 13.8823494,12.5002535 13.8888889,10.0015728 C13.8888932,10.0003069 13.8888932,9.99904111 13.8888889,9.99777529 C13.8890577,9.97620992 13.8879708,9.954653 13.8856336,9.93321398 C13.8494128,7.82288358 12.1186781,6.11107767 10,6.11107767 C7.85880639,6.11107767 6.11111111,7.85876255 6.11111111,9.99994528 C6.11111111,12.141128 7.85880639,13.8888129 10,13.8888129 C11.18406,13.8888129 12.2462142,13.3528336 12.9606119,12.5129524 C13.1683722,13.6786868 13.5534478,14.4825944 14.1172961,15.0433205 C15.0194531,15.9404822 16.2277581,16.0571535 17.4175347,16.1576808 C17.5976181,16.1729671 17.773884,16.099709 17.8900825,15.9612843 C19.2575097,14.3313488 20,12.2423219 20,9.99994528 C20,4.48371435 15.5162694,0 10,0 Z M10,7.2221827 C11.5401569,7.2221827 12.7768983,8.45839538 12.7777779,9.99831779 C12.7777779,9.99886556 12.7777779,9.9993975 12.7777779,9.99994528 C12.7777779,11.5406591 11.5407047,12.7777079 10,12.7777079 C8.45929528,12.7777079 7.22222222,11.5406591 7.22222222,9.99994528 C7.22222222,8.45925927 8.45929528,7.2221827 10,7.2221827 Z" transform="translate(2 2)"/>
</svg>
