<svg xmlns="http://www.w3.org/2000/svg" width="24" height="24" viewBox="0 0 24 24">
  <path fill="#021D49" fill-rule="evenodd" d="M12.1770594,22.8588113 C12.0769552,22.7862357 11.9793535,22.7111575 11.8817518,22.6360792 C11.8667362,22.6260688 11.8542231,22.6135558 11.8392075,22.6035454 C11.9943691,22.7236705 11.9217935,22.6686131 11.886757,22.6410845 C11.8542231,22.6160584 11.8216893,22.5910323 11.7891554,22.5635036 C11.7190824,22.5084463 11.6465068,22.4508863 11.5764338,22.3933264 C10.7956204,21.7626694 10.0523462,21.0869656 9.34911366,20.37122 C8.88863399,19.9032325 8.44817518,19.4177268 8.02773723,18.9147028 C7.91511992,18.7820647 7.80500521,18.6469239 7.69739312,18.5117831 C7.64483837,18.4442127 7.58978102,18.3766423 7.53722628,18.3090719 C7.51470282,18.2790407 7.48967675,18.2490094 7.46715328,18.2189781 C7.56976017,18.3466111 7.45213764,18.1989572 7.42961418,18.1714286 C7.20688217,17.876121 6.98915537,17.5783107 6.781439,17.2729927 C6.35349322,16.6448384 5.96058394,15.9941606 5.61272158,15.3209593 C5.43253389,14.973097 5.26485923,14.6202294 5.1096976,14.2623566 C5.10218978,14.2423358 5.09217935,14.2223149 5.08467153,14.2047967 C5.04212722,14.1046924 5.11970803,14.2873827 5.09217935,14.2223149 C5.07466111,14.177268 5.05464025,14.1322211 5.037122,14.0896767 C4.9995829,13.9945777 4.9620438,13.8994786 4.92450469,13.8043796 C4.85192909,13.6191867 4.78435871,13.4314911 4.72179353,13.241293 C4.46152242,12.4704901 4.26381648,11.6771637 4.14369135,10.8713243 C4.13868613,10.8437956 4.13618352,10.8162669 4.13117831,10.7887383 C4.12116788,10.7186653 4.09363921,10.7436913 4.13368092,10.8037539 C4.11366006,10.7737226 4.12116788,10.7061522 4.11616267,10.6686131 C4.10364964,10.5559958 4.0911366,10.4433785 4.07862357,10.3307612 C4.05860271,10.1205422 4.04358707,9.91032325 4.03607925,9.69760167 C4.018561,9.26715328 4.018561,8.8367049 4.0561001,8.40875912 C4.06611053,8.30615224 4.07612096,8.20104275 4.08863399,8.09843587 C4.0911366,8.07090719 4.09363921,8.04087591 4.09864442,8.01334724 C4.09614181,8.02335766 4.08112617,8.13347237 4.09614181,8.04337852 C4.10364964,7.98581856 4.11366006,7.93076121 4.12116788,7.87320125 C4.15620438,7.66047967 4.1987487,7.45026069 4.24880083,7.24004171 C4.3464025,6.837122 4.47403545,6.44421272 4.62669447,6.05881126 C4.63420229,6.03879041 4.64421272,6.01876955 4.65172054,5.99624609 C4.68425443,5.91366006 4.64171011,6.01376434 4.63920751,6.02377477 C4.65172054,5.97372263 4.68425443,5.91866528 4.70677789,5.87111575 C4.7468196,5.7810219 4.78936392,5.69092805 4.83441084,5.6008342 C4.9270073,5.41313869 5.02460897,5.22794578 5.12971846,5.04775808 C5.23232534,4.8725756 5.33993743,4.69989572 5.45505735,4.53222106 C5.5076121,4.45464025 5.56016684,4.37956204 5.61522419,4.30448384 C5.64775808,4.25943691 5.68029197,4.2168926 5.71282586,4.17184567 C5.73534932,4.14181439 5.73785193,4.10677789 5.69530761,4.19436913 C5.70782065,4.16934307 5.73785193,4.13931178 5.75537018,4.11678832 C6.00813347,3.80145985 6.28091762,3.50114703 6.57372263,3.22335766 C6.72387904,3.08070907 6.87904067,2.94306569 7.03920751,2.81042753 C7.0717414,2.78289885 7.10677789,2.75537018 7.14181439,2.7278415 C7.16433785,2.71032325 7.18435871,2.69530761 7.20688217,2.67778936 C7.25943691,2.63524505 7.12930136,2.73534932 7.18435871,2.69530761 C7.26944734,2.63524505 7.34953076,2.57017727 7.4346194,2.5101147 C7.7649635,2.27486966 8.11532847,2.06465068 8.47570386,1.87945777 C8.5632951,1.83441084 8.65338895,1.78936392 8.74348279,1.7468196 C8.83858186,1.70177268 8.94369135,1.6367049 9.04629823,1.61167883 C8.91366006,1.64421272 9.05630865,1.60667362 9.09635036,1.59165798 C9.1438999,1.57413973 9.18894682,1.55411887 9.23649635,1.53660063 C9.33660063,1.49906152 9.43420229,1.46402503 9.53430657,1.42898853 C9.92971846,1.29635036 10.3326382,1.19124088 10.7430657,1.11616267 C10.84317,1.09864442 10.9457769,1.08112617 11.0458811,1.06611053 C11.0809176,1.06110532 11.1559958,1.03607925 11.0308655,1.06861314 C11.0508863,1.06360792 11.078415,1.06360792 11.0984359,1.06110532 C11.1559958,1.0535975 11.2135558,1.04859228 11.2711157,1.04108446 C11.4913452,1.018561 11.7115746,1.00354536 11.931804,0.998540146 C12.3622523,0.986027112 12.7952033,1.00604797 13.2231491,1.05860271 C13.2456726,1.06110532 13.268196,1.06360792 13.2907195,1.06611053 C13.383316,1.07862357 13.268196,1.06110532 13.2606882,1.06110532 C13.3007299,1.05109489 13.3883212,1.08112617 13.4308655,1.08613139 C13.5384776,1.10364964 13.6435871,1.12367049 13.7511992,1.14369135 C13.9564129,1.18373306 14.1591241,1.23378519 14.3593326,1.28884254 C14.5595412,1.3438999 14.7572471,1.40646507 14.9499479,1.47653806 C15.0450469,1.50907195 15.1376434,1.54410845 15.2302398,1.58164755 C15.2677789,1.59666319 15.3378519,1.61167883 15.3678832,1.63920751 C15.3603754,1.63420229 15.2577685,1.59165798 15.3403545,1.62669447 C15.3703858,1.63920751 15.4004171,1.65422315 15.4304484,1.66673618 C15.8033368,1.83190824 16.1637122,2.02460897 16.5090719,2.23983316 C16.686757,2.34994786 16.8569343,2.46757039 17.0271116,2.59019812 C17.0621481,2.61522419 17.0971846,2.64275287 17.1322211,2.66777894 C17.1397289,2.67278415 17.2273201,2.74035454 17.1597497,2.68779979 C17.0921794,2.63774765 17.1797706,2.70281543 17.1872784,2.71032325 C17.2648592,2.77038582 17.3399374,2.83295099 17.4150156,2.89801877 C17.7278415,3.1632951 18.0206465,3.44859228 18.2934307,3.75641293 C18.3559958,3.82648592 18.4160584,3.89655892 18.476121,3.96663191 C18.5111575,4.00917623 18.546194,4.05172054 18.5787278,4.09426486 C18.5912409,4.11178311 18.6062565,4.12930136 18.6187696,4.144317 C18.6488008,4.1818561 18.7038582,4.21438999 18.6212722,4.1468196 C18.6913452,4.20187696 18.7464025,4.31199166 18.7964546,4.38456726 C18.8565172,4.46965589 18.9165798,4.55474453 18.9741397,4.64233577 C19.201877,4.98769552 19.4045881,5.34807091 19.5797706,5.72095933 C19.6198123,5.80604797 19.6573514,5.8911366 19.6948905,5.97872784 C19.7149114,6.02377477 19.7524505,6.04379562 19.6898853,5.96621481 C19.6998957,5.97872784 19.7099062,6.01376434 19.7149114,6.02877998 C19.7349322,6.08133472 19.7574557,6.13138686 19.7749739,6.18394161 C19.8500521,6.38164755 19.9201251,6.5818561 19.9801877,6.78456726 C20.1003128,7.18498436 20.1929093,7.59541189 20.2529718,8.00834202 C20.2554745,8.03086548 20.2579771,8.05338895 20.2629823,8.07591241 C20.2379562,7.95328467 20.2554745,8.01584984 20.2579771,8.04588113 C20.2654849,8.10344108 20.2729927,8.16100104 20.2779979,8.21605839 C20.2880083,8.31866528 20.2980188,8.42377477 20.3055266,8.52638165 C20.3355579,8.73660063 20.3430657,8.9468196 20.3430657,9.15703858 C20.3430657,9.5649635 20.3230448,9.97288843 20.2830031,10.3783107 C20.2729927,10.4734098 20.2629823,10.5685089 20.2504692,10.6661105 C20.245464,10.7111575 20.2379562,10.7562044 20.232951,10.8012513 C20.2504692,10.6485923 20.2279458,10.8312826 20.2229406,10.8688217 C20.1954119,11.0615224 20.1603754,11.2542231 20.1228363,11.4469239 C19.9751825,12.2027112 19.7624609,12.9459854 19.4921794,13.6667362 C19.4271116,13.8419187 19.3570386,14.0171011 19.284463,14.189781 C19.2769552,14.2072993 19.2469239,14.272367 19.2794578,14.2047967 C19.3169969,14.1272158 19.2719499,14.2223149 19.2669447,14.2323253 C19.2494265,14.272367 19.2344108,14.3099062 19.2168926,14.3499479 C19.1793535,14.4375391 19.1393118,14.5251303 19.0992701,14.6127216 C18.9466111,14.9480709 18.781439,15.2759124 18.6062565,15.6012513 C18.2633994,16.2344108 17.8830031,16.8475495 17.4725756,17.4381648 C17.272367,17.7234619 17.0596455,17.9987487 16.8544317,18.2815433 C16.8594369,18.2765381 16.9295099,18.1839416 16.8794578,18.2490094 C16.8669447,18.264025 16.8569343,18.2790407 16.8444213,18.2940563 C16.8218978,18.3240876 16.7968717,18.3541189 16.7743483,18.3841502 C16.7217935,18.4517205 16.6667362,18.5192909 16.6141814,18.5843587 C16.5090719,18.7144943 16.4014599,18.8446298 16.2913452,18.9747654 C15.8934307,19.4452555 15.4779979,19.9007299 15.0475495,20.3411887 C14.3668405,21.0369135 13.6485923,21.6976017 12.892805,22.3107404 C12.7626694,22.4158498 12.6325339,22.5209593 12.4998957,22.6235662 C12.4873827,22.6335766 12.472367,22.6435871 12.459854,22.6535975 C12.3847758,22.7111575 12.5674661,22.5710115 12.5074035,22.6160584 C12.4773723,22.6385819 12.4498436,22.6611053 12.4198123,22.6836288 C12.3722628,22.7186653 12.3272158,22.7537018 12.2796663,22.7887383 C12.1807503,22.8629253 12.2771637,22.9313869 12.1770594,22.8588113 Z M21.3441084,9.15703858 C21.3416058,7.3801877 20.8210636,5.60834202 19.8375391,4.12429614 C18.8865485,2.6903024 17.5351408,1.51407716 15.9584984,0.813347237 C14.274244,0.0625651721 12.4173097,-0.170177268 10.5979145,0.137643379 C8.87862357,0.427945777 7.26193952,1.24379562 5.97810219,2.42002086 C4.70177268,3.58873827 3.76830031,5.13534932 3.3278415,6.80959333 C2.86736184,8.55140772 2.96996872,10.4058394 3.37038582,12.1501564 C3.73826903,13.7518248 4.39645464,15.2859228 5.23232534,16.6998957 C5.99562044,17.9937435 6.91407716,19.2 7.92012513,20.3161627 C8.68842544,21.167049 9.51678832,21.9678832 10.3901981,22.7111575 C10.8656934,23.1140772 11.3537018,23.5069864 11.8642336,23.8648592 C11.886757,23.8798749 11.9067779,23.8948905 11.9293014,23.9099062 C12.0669447,24.0025026 12.2971846,24.0025026 12.4348279,23.9099062 C12.7676747,23.6846715 13.0830031,23.4344108 13.395829,23.1841502 C14.1240876,22.6035454 14.8198123,21.9803962 15.4805005,21.3247132 C16.4139729,20.3987487 17.2748697,19.4002086 18.0506778,18.3391032 C18.934098,17.1278415 19.6823775,15.8264859 20.2554745,14.4425443 C20.8711157,12.9584984 21.2465068,11.3743483 21.3240876,9.76767466 C21.334098,9.5649635 21.3391032,9.36225235 21.3391032,9.1620438 C21.3391032,8.1735132 21.3455007,10.1455682 21.3441084,9.15703858 Z M14.5620438,9.36725756 C14.5595412,9.40229406 14.5570386,9.43482795 14.5520334,9.46986444 C14.5445255,9.55745568 14.5695516,9.37226277 14.5495308,9.4898853 C14.5270073,9.6350365 14.4919708,9.77518248 14.4469239,9.91532847 C14.426903,9.97789364 14.401877,10.0404588 14.3793535,10.103024 C14.3593326,10.1555787 14.3968717,10.0579771 14.3968717,10.0604797 C14.3993743,10.0654849 14.3793535,10.1005214 14.3768509,10.1055266 C14.3593326,10.1405631 14.344317,10.1755996 14.3267987,10.2106361 C14.2642336,10.3332638 14.1941606,10.4508863 14.1165798,10.561001 C14.1040667,10.5785193 14.0715328,10.6435871 14.0490094,10.6535975 C14.0465068,10.6561001 14.1140772,10.5735141 14.0765381,10.6160584 C14.0665276,10.6285714 14.0565172,10.6410845 14.0465068,10.6535975 C14.0014599,10.7086548 13.9539103,10.7612096 13.9038582,10.8112617 C13.8588113,10.8588113 13.8112617,10.9038582 13.7637122,10.9464025 C13.7386861,10.968926 13.7161627,10.9889468 13.6911366,11.0114703 C13.6786236,11.0214807 13.6661105,11.0314911 13.6535975,11.0415016 C13.5985401,11.0890511 13.6711157,11.038999 13.6786236,11.0239833 C13.6636079,11.064025 13.5534932,11.1140772 13.5184567,11.1366006 C13.4533889,11.1791449 13.3883212,11.2191867 13.3232534,11.2542231 C13.2656934,11.286757 13.2056309,11.3167883 13.1480709,11.344317 C13.1330553,11.3518248 13.1180396,11.35683 13.103024,11.3643379 C13.0529718,11.3893639 13.1480709,11.344317 13.1455683,11.3468196 C13.1380605,11.3643379 13.0554745,11.3818561 13.0379562,11.3893639 C12.9078206,11.4369135 12.7726799,11.4744526 12.6350365,11.5019812 C12.6025026,11.5094891 12.5674661,11.5144943 12.5349322,11.5194995 C12.517414,11.5220021 12.5023983,11.5245047 12.4848801,11.5270073 C12.4273201,11.5370177 12.5349322,11.5194995 12.5324296,11.5194995 C12.4548488,11.5144943 12.3697602,11.5345151 12.2921794,11.5370177 C12.1470282,11.5420229 12.001877,11.5320125 11.8567258,11.5194995 C11.7991658,11.5144943 11.9042753,11.5270073 11.9042753,11.5270073 C11.8892596,11.5220021 11.8692388,11.5220021 11.8542231,11.5194995 C11.8216893,11.5144943 11.7866528,11.5069864 11.7541189,11.5019812 C11.6815433,11.4869656 11.6114703,11.4719499 11.5413973,11.4519291 C11.4713243,11.4319082 11.4037539,11.4093848 11.3336809,11.3868613 C11.3036496,11.3743483 11.2711157,11.3618352 11.2410845,11.3518248 C11.1885297,11.331804 11.2861314,11.3693431 11.2836288,11.3693431 C11.276121,11.3718457 11.231074,11.3468196 11.2235662,11.3418144 C11.0984359,11.2842544 10.9783107,11.216684 10.8656934,11.1441084 C10.8106361,11.1090719 10.7580813,11.0690302 10.7055266,11.0314911 C10.6604797,10.9989572 10.7455683,11.0590198 10.7430657,11.0590198 C10.7380605,11.0590198 10.7080292,11.0314911 10.7055266,11.0289885 C10.6754953,11.0039625 10.6479666,10.9789364 10.6179353,10.9539103 C10.5128259,10.8588113 10.4152242,10.758707 10.3226277,10.6485923 C10.3126173,10.6360792 10.3026069,10.6235662 10.2925965,10.6110532 C10.2550574,10.5685089 10.3226277,10.6485923 10.3201251,10.6485923 C10.3001043,10.6410845 10.2750782,10.5860271 10.2625652,10.5685089 C10.2225235,10.5109489 10.1824818,10.4508863 10.1449426,10.3908238 C10.1099062,10.3357664 10.0798749,10.2782065 10.0498436,10.2181439 C10.0323253,10.1831074 10.0148071,10.1505735 9.99979145,10.115537 C9.99228363,10.1005214 9.98727842,10.0855057 9.97977059,10.0704901 C9.94973931,10.0129301 10.0123045,10.1605839 9.99228363,10.0980188 C9.9447341,9.9653806 9.89718457,9.83774765 9.86465068,9.70010428 C9.84963504,9.6350365 9.8346194,9.56746611 9.82460897,9.50239833 C9.82210636,9.48488008 9.81960375,9.46986444 9.81710115,9.45234619 C9.80709072,9.39478624 9.82460897,9.49989572 9.82460897,9.49989572 C9.82711157,9.46235662 9.81459854,9.4173097 9.81209593,9.37977059 C9.7995829,9.22961418 9.7995829,9.07695516 9.81209593,8.92679875 C9.81459854,8.89176225 9.81960375,8.85922836 9.82210636,8.82419187 C9.82711157,8.76663191 9.81459854,8.8717414 9.81459854,8.8717414 C9.81960375,8.85672576 9.81960375,8.8367049 9.82210636,8.82168926 C9.8346194,8.74911366 9.84713243,8.67653806 9.86465068,8.60646507 C9.89718457,8.4713243 9.9447341,8.34118874 9.99228363,8.20855057 C10.0123045,8.15599583 9.97476538,8.2535975 9.97476538,8.25109489 C9.97226277,8.24608968 10.0022941,8.19103233 10.0022941,8.19103233 C10.0173097,8.16100104 10.0298227,8.13096976 10.0448384,8.10093848 C10.0773723,8.03837331 10.1124088,7.97580813 10.1474453,7.91324296 C10.1824818,7.85818561 10.2175182,7.80312826 10.2550574,7.74807091 C10.2725756,7.72054223 10.2950991,7.69551616 10.3126173,7.66798749 C10.3451512,7.62294056 10.2850886,7.7080292 10.2850886,7.70552659 C10.282586,7.69801877 10.3201251,7.66047967 10.3251303,7.65547445 C10.4152242,7.54786236 10.5153285,7.44525547 10.620438,7.35015641 C10.645464,7.32763295 10.6704901,7.3076121 10.6955162,7.28508863 C10.7080292,7.27507821 10.7205422,7.26506778 10.7330553,7.25505735 C10.7755996,7.21751825 10.6955162,7.28508863 10.6955162,7.28258603 C10.7130344,7.24004171 10.8306569,7.18498436 10.868196,7.15995829 C10.983316,7.08488008 11.1034411,7.0198123 11.2260688,6.96225235 C11.2410845,6.95474453 11.2561001,6.94973931 11.2711157,6.94223149 C11.3211679,6.91720542 11.2260688,6.96225235 11.2285714,6.95974974 C11.2360792,6.9447341 11.3061522,6.92971846 11.3211679,6.92471324 C11.3937435,6.89718457 11.4688217,6.87466111 11.5438999,6.85213764 C11.6089677,6.8346194 11.6740355,6.81710115 11.7391032,6.80458811 C11.7716371,6.79708029 11.8066736,6.79207508 11.8392075,6.78706986 C11.8567258,6.78456726 11.8717414,6.78206465 11.8892596,6.77956204 C11.95683,6.76704901 11.7891554,6.78957247 11.8592284,6.78456726 C12.0043796,6.77205422 12.1470282,6.7620438 12.294682,6.76704901 C12.3697602,6.76955162 12.4448384,6.77705944 12.5199166,6.78456726 C12.5774765,6.78957247 12.472367,6.77705944 12.472367,6.77705944 C12.4873827,6.78206465 12.5074035,6.78206465 12.5224192,6.78456726 C12.5624609,6.79207508 12.6,6.79708029 12.6400417,6.80709072 C12.7776851,6.8346194 12.9128259,6.8721585 13.0429614,6.91970803 C13.0729927,6.93222106 13.1055266,6.9447341 13.1355579,6.95474453 C13.1881126,6.97476538 13.0905109,6.93722628 13.0930136,6.93722628 C13.0980188,6.93472367 13.1330553,6.95474453 13.1380605,6.95724713 C13.2031283,6.98727842 13.2656934,7.0198123 13.3282586,7.05234619 C13.3908238,7.08738269 13.4508863,7.12241919 13.5109489,7.1624609 C13.548488,7.18748697 13.6661105,7.24254432 13.6836288,7.28508863 C13.6861314,7.28759124 13.6035454,7.22002086 13.6460897,7.25755996 C13.6586027,7.26757039 13.6711157,7.27758081 13.6836288,7.28759124 C13.7086548,7.3076121 13.7336809,7.33013556 13.758707,7.35265902 C13.8112617,7.40020855 13.8613139,7.44775808 13.911366,7.50031283 C13.9564129,7.54786236 14.0014599,7.59541189 14.0415016,7.64546403 C14.0565172,7.66298227 14.1290928,7.73055266 14.0740355,7.68300313 C14.0890511,7.70552659 14.1065693,7.72805005 14.121585,7.74807091 C14.1991658,7.86068822 14.2692388,7.97831074 14.331804,8.09843587 C14.3468196,8.12846715 14.3618352,8.15849844 14.3743483,8.18852972 C14.3818561,8.20354536 14.3868613,8.218561 14.3943691,8.23357664 C14.4193952,8.28362878 14.3743483,8.18852972 14.3768509,8.19103233 C14.4093848,8.20855057 14.4394161,8.35870699 14.4519291,8.39374348 C14.496976,8.53138686 14.5320125,8.67403545 14.554536,8.81918665 C14.5570386,8.8367049 14.5570386,8.85422315 14.5620438,8.86923879 C14.5620438,8.86923879 14.5495308,8.7641293 14.554536,8.82168926 C14.5570386,8.85672576 14.5620438,8.88925965 14.5645464,8.92429614 C14.567049,9.00688217 14.5695516,9.08196038 14.5695516,9.15703858 C14.5695516,9.22711157 14.567049,9.29718457 14.5620438,9.36725756 Z M15.5705944,9.15703858 C15.5630865,7.72554745 14.6546403,6.45922836 13.3182482,5.96621481 C12.026903,5.4907195 10.480292,5.90615224 9.60437956,6.96725756 C9.14139729,7.5278415 8.86861314,8.18852972 8.80855057,8.91428571 C8.75099062,9.6 8.9261731,10.313243 9.28154327,10.9013556 C9.62440042,11.4694473 10.14244,11.9499479 10.7505735,12.2252346 C11.4262774,12.5305527 12.1570386,12.6181439 12.8852972,12.4729927 C14.2091762,12.210219 15.3128259,11.0765381 15.5205422,9.74014599 C15.5505735,9.54744526 15.5705944,9.35474453 15.5731367,9.15954119 C15.5837288,8.3462448 15.5748602,9.97039275 15.5705944,9.15703858 Z"/>
</svg>
