<svg xmlns="http://www.w3.org/2000/svg" width="24" height="24" viewBox="0 0 24 24">
  <path fill="#4E5E6C" fill-rule="evenodd" d="M7.5,20 L11.5,20 C11.5,21.1 10.6,22 9.5,22 C8.45,22 7.5822314,21.1799587 7.50551277,20.1486946 L7.5,20 L11.5,20 Z M9.5,0 C10.8598186,0 11.9635979,1.08167832 11.9991179,2.432815 C14.952468,3.47485059 17,6.27911047 17,9.5 L17,14.5857864 L18.4142136,16 C18.7892863,16.3750728 19,16.8837806 19,17.4142136 L19,17.5 C19,18.3284271 18.3284271,19 17.5,19 L1.5,19 C0.671572875,19 0,18.3284271 0,17.5 L0,17.4142136 C0,16.8837806 0.210713681,16.3750728 0.585786438,16 L2,14.5857864 L2,9.5 C2,6.27911047 4.04753199,3.47485059 7.00088209,2.432815 C7.03640207,1.08167832 8.14018136,0 9.5,0 Z M9.5,2 C9.22228475,2 9,2.22228475 9,2.5 L9,3.97075177 L8.23055087,4.15306027 C5.76631554,4.73692091 4,6.93924141 4,9.5 L4,15.4142136 L2.41421356,17 L16.5857864,17 L15,15.4142136 L15,9.5 C15,6.93924141 13.2336845,4.73692091 10.7694491,4.15306027 L10,3.97075177 L10,2.5 C10,2.22228475 9.77771525,2 9.5,2 Z" transform="translate(3 1)"/>
</svg>
