<svg xmlns="http://www.w3.org/2000/svg" width="24" height="24" viewBox="0 0 24 24">
  <path fill="#4E5E6C" fill-rule="evenodd" d="M-1.49213975e-13,2.944 C-1.49213975e-13,2.4639976 0.06399936,2.04266848 0.192,1.68 C0.32000064,1.31733152 0.49866552,1.01066792 0.728,0.76 C0.95733448,0.50933208 1.22666512,0.32000064 1.536,0.192 C1.84533488,0.06399936 2.18133152,-8.8817842e-15 2.544,-8.8817842e-15 C2.90666848,-8.8817842e-15 3.24266512,0.06399936 3.552,0.192 C3.86133488,0.32000064 4.13066552,0.50933208 4.36,0.76 C4.58933448,1.01066792 4.76799936,1.31733152 4.896,1.68 C5.02400064,2.04266848 5.088,2.4639976 5.088,2.944 C5.088,3.4240024 5.02400064,3.84533152 4.896,4.208 C4.76799936,4.57066848 4.58933448,4.87733208 4.36,5.128 C4.13066552,5.37866792 3.86133488,5.56799936 3.552,5.696 C3.24266512,5.82400064 2.90666848,5.888 2.544,5.888 C2.18133152,5.888 1.84533488,5.82400064 1.536,5.696 C1.22666512,5.56799936 0.95733448,5.37866792 0.728,5.128 C0.49866552,4.87733208 0.32000064,4.57066848 0.192,4.208 C0.06399936,3.84533152 -1.49213975e-13,3.4240024 -1.49213975e-13,2.944 Z M3.84,2.944 C3.84,2.36799712 3.72800112,1.91733496 3.504,1.592 C3.27999888,1.26666504 2.96000208,1.104 2.544,1.104 C2.12799792,1.104 1.80800112,1.26666504 1.584,1.592 C1.35999888,1.91733496 1.248,2.36799712 1.248,2.944 C1.248,3.52000288 1.35999888,3.97066504 1.584,4.296 C1.80800112,4.62133496 2.12799792,4.784 2.544,4.784 C2.96000208,4.784 3.27999888,4.62133496 3.504,4.296 C3.72800112,3.97066504 3.84,3.52000288 3.84,2.944 Z M7.04,8.624 C7.04,8.1439976 7.10399936,7.72266848 7.232,7.36 C7.36000064,6.99733152 7.53866552,6.69066792 7.768,6.44 C7.99733448,6.18933208 8.26666512,6.00000064 8.576,5.872 C8.88533488,5.74399936 9.22133152,5.68 9.584,5.68 C9.94666848,5.68 10.2826651,5.74399936 10.592,5.872 C10.9013349,6.00000064 11.1706655,6.18933208 11.4,6.44 C11.6293345,6.69066792 11.8079994,6.99733152 11.936,7.36 C12.0640006,7.72266848 12.128,8.1439976 12.128,8.624 C12.128,9.1040024 12.0640006,9.52533152 11.936,9.888 C11.8079994,10.2506685 11.6293345,10.5573321 11.4,10.808 C11.1706655,11.0586679 10.9013349,11.2479994 10.592,11.376 C10.2826651,11.5040006 9.94666848,11.568 9.584,11.568 C9.22133152,11.568 8.88533488,11.5040006 8.576,11.376 C8.26666512,11.2479994 7.99733448,11.0586679 7.768,10.808 C7.53866552,10.5573321 7.36000064,10.2506685 7.232,9.888 C7.10399936,9.52533152 7.04,9.1040024 7.04,8.624 Z M10.88,8.624 C10.88,8.04799712 10.7680011,7.59733496 10.544,7.272 C10.3199989,6.94666504 10.0000021,6.784 9.584,6.784 C9.16799792,6.784 8.84800112,6.94666504 8.624,7.272 C8.39999888,7.59733496 8.288,8.04799712 8.288,8.624 C8.288,9.20000288 8.39999888,9.65066504 8.624,9.976 C8.84800112,10.301335 9.16799792,10.464 9.584,10.464 C10.0000021,10.464 10.3199989,10.301335 10.544,9.976 C10.7680011,9.65066504 10.88,9.20000288 10.88,8.624 Z M9.92,0.24 L3.664,11.328 L2.208,11.328 L8.464,0.24 L9.92,0.24 Z" transform="translate(5.936 6.672)"/>
</svg>
