<svg xmlns="http://www.w3.org/2000/svg" width="24" height="24" viewBox="0 0 24 24">
  <path fill="#021D49" fill-rule="evenodd" d="M5.9677377,0.755409836 C6.49652459,0.755409836 7.3652459,1.05757377 7.55409836,1.54859016 C8.08288525,3.05940984 8.80052459,5.02347541 9.29154098,6.87422951 C9.36708197,7.21416393 9.29154098,8.2717377 8.7627541,8.61167213 L6.98754098,9.74478689 C6.87422951,9.82032787 6.83645902,9.93363934 6.79868852,10.0469508 C6.72314754,10.3491148 6.83645902,10.7268197 7.10085246,11.0667541 C7.78072131,12.0110164 8.61167213,12.9552787 9.51816393,13.899541 C10.4246557,14.8060328 11.368918,15.5992131 12.3131803,16.279082 C12.8041967,16.6190164 13.4462951,16.6567869 13.6351475,16.3923934 L14.7682623,14.6171803 C15.0869508,14.1214426 16.0695738,14.0572623 16.1911568,14.0511762 L16.203541,14.050623 C16.3168525,14.050623 16.3923934,14.050623 16.4679344,14.0883934 C18.7719344,14.6171803 20.1316721,15.0326557 21.8691148,15.8258361 C22.3979016,16.052459 22.7756066,17.2233443 22.5489836,17.8654426 C21.9446557,19.4140328 21.0759344,20.7737705 19.9050492,21.9446557 C19.5651148,22.2845902 19.2251803,22.5867541 18.8474754,22.888918 L18.7341639,23.0022295 L18.205377,22.964459 C13.899541,22.964459 9.40485246,20.962623 5.92996721,17.4877377 C2.26622951,13.824 0.302163934,9.25377049 0.377704918,4.79685246 L0.377704918,4.64577049 L0.491016393,4.53245902 C0.793180328,4.1547541 1.09534426,3.81481967 1.43527869,3.47488525 C2.60616393,2.304 3.96590164,1.43527869 5.5144918,0.83095082 C5.66557377,0.793180328 5.81665574,0.755409836 5.9677377,0.755409836 Z M6.0055082,1.69967213 L5.89219672,1.69967213 L5.89219672,1.69967213 C4.49468852,2.22845902 3.2482623,3.05940984 2.19068852,4.11698361 C1.88852459,4.41914754 1.62413115,4.68354098 1.3975082,5.02347541 C1.3597377,9.10268852 3.2482623,13.3707541 6.57206557,16.7323279 L6.64760656,16.8078689 C9.93363934,20.0939016 14.1639344,21.9824262 18.205377,21.9824262 L18.356459,21.9824262 C18.658623,21.7558033 18.9230164,21.4914098 19.1874098,21.2270164 C20.2449836,20.1694426 21.0759344,18.9230164 21.6047213,17.5255082 C21.6802623,17.3744262 21.5291803,16.8456393 21.3780984,16.6945574 C19.7539672,15.976918 18.4697705,15.5614426 16.2413115,15.0704262 C15.901377,15.0704262 15.6369836,15.1459672 15.5614426,15.2215082 L14.4660984,16.9211803 C13.975082,17.6765902 12.6531148,17.7521311 11.7088525,17.0722623 C10.7268197,16.354623 9.74478689,15.5236721 8.80052459,14.5794098 C7.8562623,13.6351475 7.02531148,12.6531148 6.30767213,11.6333115 C5.89219672,11.0667541 5.74111475,10.4246557 5.85442623,9.82032787 C5.92996721,9.40485246 6.15659016,9.06491803 6.49652459,8.87606557 L8.2717377,7.74295082 C8.3095082,7.66740984 8.38504918,7.25193443 8.34727869,7.10085246 C7.8562623,5.28786885 7.17639344,3.36157377 6.64760656,1.8507541 C6.57206557,1.8507541 6.26990164,1.69967213 6.0055082,1.69967213 Z"/>
</svg>
