<svg xmlns="http://www.w3.org/2000/svg" width="24" height="24" viewBox="0 0 24 24">
  <path fill="#021D49" fill-rule="evenodd" d="M2.30943396,10.2109705 L8,10.2109705 L8,11 L0,11 L0,10.2109705 L1.50943396,10.2109705 L1.50943396,6.46694796 L0.301886792,6.46694796 L0.301886792,5.73980309 L1.50943396,5.73980309 L1.50943396,3.10970464 C1.50943396,1.06751055 2.97358491,0 4.54339623,0 C5.93207547,0 6.88301887,0.758087201 7.36603774,2.01125176 L6.71698113,2.39803094 C6.35471698,1.36146273 5.64528302,0.789029536 4.54339623,0.789029536 C3.30566038,0.789029536 2.30943396,1.59353024 2.30943396,3.10970464 L2.30943396,5.73980309 L5.94716981,5.73980309 L5.94716981,6.46694796 L2.30943396,6.46694796 L2.30943396,10.2109705 Z" transform="translate(8 6)"/>
</svg>
