<svg xmlns="http://www.w3.org/2000/svg" width="24" height="24" viewBox="0 0 24 24">
  <path fill="#4E5E6C" fill-rule="evenodd" d="M15.3846154,3 C16.786569,3 17.9230769,4.09893743 17.9230769,5.45454545 L17.9230769,5.45454545 L17.9230769,7.90909091 L20.4615385,7.90909091 C21.8634921,7.90909091 23,9.00802834 23,10.3636364 L23,10.3636364 L23,15.2727273 C23,16.6283353 21.8634921,17.7272727 20.4615385,17.7272727 L20.4615385,17.7272727 L17.9230769,17.7272727 L17.9230769,18.5454545 C17.9230769,19.9010626 16.786569,21 15.3846154,21 L15.3846154,21 L8.61538462,21 C7.21343102,21 6.07692308,19.9010626 6.07692308,18.5454545 L6.07692308,18.5454545 L6.07692308,17.7272727 L3.53846154,17.7272727 C2.13650794,17.7272727 1,16.6283353 1,15.2727273 L1,15.2727273 L1,10.3636364 C1,9.00802834 2.13650794,7.90909091 3.53846154,7.90909091 L3.53846154,7.90909091 L6.07692308,7.90909091 L6.07692308,5.45454545 C6.07692308,4.09893743 7.21343102,3 8.61538462,3 L8.61538462,3 Z M16.2307692,14.4545455 L7.76923077,14.4545455 L7.76923077,18.5454545 C7.76923077,18.9973239 8.14806675,19.3636364 8.61538462,19.3636364 L8.61538462,19.3636364 L15.3846154,19.3636364 C15.8519332,19.3636364 16.2307692,18.9973239 16.2307692,18.5454545 L16.2307692,18.5454545 L16.2307692,14.4545455 Z M20.4615385,9.54545455 L3.53846154,9.54545455 C3.07114367,9.54545455 2.69230769,9.91176702 2.69230769,10.3636364 L2.69230769,10.3636364 L2.69230769,15.2727273 C2.69230769,15.7245966 3.07114367,16.0909091 3.53846154,16.0909091 L3.53846154,16.0909091 L6.07692308,16.0909091 L6.07692308,14.4545455 L5.23076923,14.4545455 C4.76345137,14.4545455 4.38461538,14.088233 4.38461538,13.6363636 C4.38461538,13.1844943 4.76345137,12.8181818 5.23076923,12.8181818 L5.23076923,12.8181818 L18.7692308,12.8181818 C19.2365486,12.8181818 19.6153846,13.1844943 19.6153846,13.6363636 C19.6153846,14.088233 19.2365486,14.4545455 18.7692308,14.4545455 L18.7692308,14.4545455 L17.9230769,14.4545455 L17.9230769,16.0909091 L20.4615385,16.0909091 C20.9288563,16.0909091 21.3076923,15.7245966 21.3076923,15.2727273 L21.3076923,15.2727273 L21.3076923,10.3636364 C21.3076923,9.91176702 20.9288563,9.54545455 20.4615385,9.54545455 L20.4615385,9.54545455 Z M5.58333333,10.2 C6.08959435,10.2 6.5,10.6029437 6.5,11.1 C6.5,11.5970563 6.08959435,12 5.58333333,12 C5.07707231,12 4.66666667,11.5970563 4.66666667,11.1 C4.66666667,10.6029437 5.07707231,10.2 5.58333333,10.2 Z M15.3846154,4.63636364 L8.61538462,4.63636364 C8.14806675,4.63636364 7.76923077,5.00267611 7.76923077,5.45454545 L7.76923077,5.45454545 L7.76923077,7.90909091 L16.2307692,7.90909091 L16.2307692,5.45454545 C16.2307692,5.00267611 15.8519332,4.63636364 15.3846154,4.63636364 L15.3846154,4.63636364 Z"/>
</svg>
