<svg xmlns="http://www.w3.org/2000/svg" width="24" height="24" viewBox="0 0 24 24">
  <path fill="#4E5E6C" fill-rule="evenodd" d="M12.166549,16.6875 C12.5549392,16.6875 12.8697917,16.991862 12.8697917,17.3907426 L12.8697917,17.932174 C12.8697917,18.3205642 12.5654297,18.6354167 12.166549,18.6354167 L11.6251176,18.6354167 C11.2367274,18.6354167 10.921875,18.3310547 10.921875,17.932174 L10.921875,17.3907426 C10.921875,17.0023524 11.226237,16.6875 11.6251176,16.6875 L12.166549,16.6875 Z M11.8958333,5 C14.0482813,5 15.7916667,6.74338542 15.7916667,8.89583333 C15.7916667,9.75291667 15.4410417,10.5320833 14.8858854,11.0872396 L14.0093229,11.9832813 C13.3080729,12.6942708 12.8697917,13.2786458 12.8697917,14.7395833 L10.921875,14.7395833 L10.921875,14.2526042 C10.921875,13.18125 11.3601562,12.2072917 12.0614063,11.4963021 L13.2691146,10.2691146 C13.6294792,9.91848958 13.84375,9.43151042 13.84375,8.89583333 C13.84375,7.82447917 12.9671875,6.94791667 11.8958333,6.94791667 C10.8244792,6.94791667 9.94791667,7.82447917 9.94791667,8.89583333 L8,8.89583333 C8,6.74338542 9.74338542,5 11.8958333,5 Z"/>
</svg>
