<svg xmlns="http://www.w3.org/2000/svg" width="24" height="24" viewBox="0 0 24 24">
  <path fill="#4E5E6C" fill-rule="evenodd" d="M1.44386482,9.11227036 C1.19872505,9.6025499 1.44266033,10 1.99895656,10 L4,10 L6,6 L6,0.990777969 C6,0.443586406 5.54902482,0 5.00922203,0 L0.990777969,0 C0.443586406,0 0,0.45097518 0,0.990777969 L0,5.00922203 C0,5.55641359 0.442660332,6 0.998956561,6 L3,6 L1.44386482,9.11227036 Z M9.44386482,9.11227036 C9.19872505,9.6025499 9.44266033,10 9.99895656,10 L12,10 L14,6 L14,0.990777969 C14,0.443586406 13.5490248,0 13.009222,0 L8.99077797,0 C8.44358641,0 8,0.45097518 8,0.990777969 L8,5.00922203 C8,5.55641359 8.44266033,6 8.99895656,6 L11,6 L9.44386482,9.11227036 Z" transform="rotate(-180 9.5 8.5)"/>
</svg>
