<svg xmlns="http://www.w3.org/2000/svg" width="24" height="24" viewBox="0 0 24 24">
  <path fill="#4E5E6C" fill-rule="evenodd" d="M8.69373964,13 C9.95217436,13 11.086957,14.0952772 11.086957,15.2657045 L11.086957,21.1293744 C11.086957,21.6575778 10.6587076,22.0857714 10.1304352,22.0857714 C9.6021629,22.0857714 9.17391354,21.6575778 9.17391354,21.1293744 L9.17395695,16.3437714 L3.6222033,21.7224369 C3.2428505,22.0900344 2.63728882,22.0805449 2.26964344,21.7012415 C1.90199805,21.3219382 1.91148879,20.7164555 2.29084159,20.348858 L7.89995695,14.9137714 L2.95652244,14.912794 C2.42825009,14.912794 2.00000074,14.4846005 2.00000074,13.956397 C2.00000074,13.4281935 2.42825009,13 2.95652244,13 L8.69373964,13 Z M20,2 C21.1045695,2 22,2.8954305 22,4 L22,20 C22,21.1045695 21.1045695,22 20,22 L13.9296875,22 C13.3774028,22 12.9296875,21.5522847 12.9296875,21 C12.9296875,20.4477153 13.3774028,20 13.9296875,20 L20,20 L20,4 L4,4 L4,10.0063477 C4,10.5586324 3.55228475,11.0063477 3,11.0063477 C2.44771525,11.0063477 2,10.5586324 2,10.0063477 L2,4 C2,2.8954305 2.8954305,2 4,2 L20,2 Z" transform="rotate(180 12 12.043)"/>
</svg>
