<svg xmlns="http://www.w3.org/2000/svg" width="24" height="24" viewBox="0 0 24 24">
  <path fill="#4E5E6C" fill-rule="evenodd" d="M11.71,11 L11.43,10.73 C12.41,9.59 13,8.11 13,6.5 C13,2.91 10.09,-1.08357767e-13 6.5,-1.08357767e-13 C2.91,-1.08357767e-13 -1.08357767e-13,2.91 -1.08357767e-13,6.5 C-1.08357767e-13,10.09 2.91,13 6.5,13 C8.11,13 9.59,12.41 10.73,11.43 L11,11.71 L11,12.5 L15.2928939,16.7843081 C15.6835323,17.1741652 16.3161514,17.1738486 16.7063993,16.7836007 L16.7836007,16.7063993 C17.1738486,16.3161514 17.1741652,15.6835323 16.7843081,15.2928939 L12.5,11 L12.5,11 L11.71,11 Z M2,6.5 C2,4.01 4.01,2 6.5,2 C8.99,2 11,4.01 11,6.5 C11,8.99 8.99,11 6.5,11 C4.01,11 2,8.99 2,6.5 Z" transform="translate(3 3)"/>
</svg>
