<svg xmlns="http://www.w3.org/2000/svg" width="24" height="24" viewBox="0 0 24 24">
  <path fill="#4E5E6C" fill-rule="evenodd" d="M8,15 C9.1045695,15 10,15.8954305 10,17 C10,18.1045695 9.1045695,19 8,19 C6.8954305,19 6,18.1045695 6,17 C6,15.8954305 6.8954305,15 8,15 Z M16,15 C17.1045695,15 18,15.8954305 18,17 C18,18.1045695 17.1045695,19 16,19 C14.8954305,19 14,18.1045695 14,17 C14,15.8954305 14.8954305,15 16,15 Z M4.44580889,0 L8.28845424,8.25721154 L15.5538028,8.25721154 L19.2033901,1.88293573 C19.4778049,1.40364984 20.0888,1.23756902 20.5680859,1.51198383 C21.0473718,1.78639864 21.2134526,2.39739378 20.9390378,2.87667966 L16.7133192,10.2572115 L7.669,10.257 L7.00024675,11.7435397 L17.5021283,11.7435397 C18.054413,11.7435397 18.5021283,12.1912549 18.5021283,12.7435397 C18.5021283,13.2958244 18.054413,13.7435397 17.5021283,13.7435397 L7.00024675,13.7435397 C6.71705645,13.7435397 6.4370947,13.6833996 6.17888753,13.5670991 C5.17176346,13.1134749 4.72306314,11.9293045 5.17668731,10.9221804 L6.22744335,8.58932039 L6.232,8.579 L3.1705831,2 L1,2 C0.44771525,2 -2.29150032e-13,1.55228475 -2.29150032e-13,1 C-2.29150032e-13,0.44771525 0.44771525,0 1,0 L4.44580889,0 Z" transform="translate(1 3)"/>
</svg>
