<svg xmlns="http://www.w3.org/2000/svg" width="24" height="24" viewBox="0 0 24 24">
  <path fill="#4E5E6C" fill-rule="evenodd" d="M10.4872866,0 C11.873008,0 13,1.12649173 13,2.51216403 L13,10.4873756 C13,11.8735083 11.873008,13 10.487747,13 L2.51225299,13 C1.12653162,13 1.77635684e-15,11.8735083 1.77635684e-15,10.4873756 L1.77635684e-15,2.51216403 C1.77635684e-15,1.12649173 1.12653162,0 2.51225299,0 L10.4872866,0 Z M3.20649479,5.16565742 L1.26602451,5.16565742 L1.26602451,10.4873756 C1.26602451,11.1751478 1.82445641,11.7321789 2.51179262,11.7321789 L10.4868263,11.7321789 C11.1732417,11.7321789 11.7325944,11.1751478 11.7325944,10.4873756 L11.7325944,5.16565742 L9.79120334,5.16565742 C9.96016007,5.57721591 10.0554572,6.02790467 10.0554572,6.49930947 C10.0554572,8.459046 8.46072668,10.0546407 6.5,10.0546407 C4.53927332,10.0546407 2.94500319,8.459046 2.94500319,6.49930947 C2.94500319,6.02790467 3.03891919,5.57721591 3.20649479,5.16565742 Z M6.50092075,4.21133893 C5.73716269,4.21133893 5.06179616,4.58883105 4.64515901,5.16519707 C4.37445995,5.54084776 4.21286918,6.00074365 4.21240881,6.49884911 C4.21102769,7.76068558 5.23811885,8.78728 6.49953963,8.78728 C7.76050004,8.78728 8.78851193,7.76114593 8.78851193,6.49930947 C8.78851193,6.00120401 8.62554005,5.54130812 8.35576174,5.16565742 C7.94004533,4.58929141 7.26421843,4.21133893 6.50092075,4.21133893 Z M11.4959629,1.49707851 L11.2091508,1.49799922 L9.2921595,1.50398385 L9.29952546,3.7077092 L11.4959629,3.7003435 L11.4959629,1.49707851 Z" transform="translate(6 6)"/>
</svg>
