<svg xmlns="http://www.w3.org/2000/svg" width="24" height="24" viewBox="0 0 24 24">
  <path fill="#4E5E6C" fill-rule="evenodd" d="M9.79177592,3.71283252 C11.6253437,3.71283252 13,4.8700686 13,7.3566003 L13,12 L10.2130684,12 L10.2130684,7.66779321 C10.2130684,6.58002342 9.81068939,5.83717584 8.80162435,5.83717584 C8.03157575,5.83717584 7.57411908,6.33729296 7.37209823,6.82154927 C7.29873057,6.99461268 7.2798171,7.23493391 7.2798171,7.47766438 L7.2798171,11.9997992 L4.49267762,11.9997992 L4.49290913,11.9535802 C4.49599588,11.3314872 4.52834883,4.6271467 4.49267762,3.90296135 L7.28002494,3.90296135 L7.28002494,5.05035971 C7.6503965,4.49984942 8.31091322,3.71283252 9.79177592,3.71283252 Z M2.95174906,3.90296135 L2.95174906,12 L0.165648782,12 L0.165648782,3.90296135 L2.95174906,3.90296135 Z M7.28002494,5.05035971 C7.27441325,5.05939434 7.26651532,5.06822821 7.26152715,5.0768613 L7.28002494,5.0768613 L7.28002494,5.05035971 Z M1.57709279,8.8817842e-16 C2.53066445,8.8817842e-16 3.11656648,0.604517316 3.13506427,1.39876192 C3.13506427,2.13041364 2.59967896,2.72441383 1.72627184,2.79176454 L1.558595,2.79812615 L1.54051289,2.79812615 C0.605646863,2.79812615 0,2.17614188 0,1.39876192 C0,0.604517316 0.623728976,8.8817842e-16 1.57709279,8.8817842e-16 Z" transform="translate(6 6)"/>
</svg>
