<svg xmlns="http://www.w3.org/2000/svg" width="24" height="24" viewBox="0 0 24 24">
  <path fill="#55ACEE" fill-rule="evenodd" d="M20,7.776 C19.45,8.016 18.6,8.304 18,8.4 C18.65,8.016 19.25,7.152 19.5,6.48 C19,6.768 18.45,7.152 17.9,7.344 L17.5,6.96 C16.95,6.384 16.4,6 15.5,6 C13.8,6 12.5,7.248 12.5,8.88 C12.5,9.072 12.5,9.216 12.55,9.36 L12.5,9.36 C9.5,9.36 7.5,8.736 6,6.96 C5.75,7.392 5.5,7.872 5.5,8.4 C5.5,9.408 6.15,10.272 7,10.8 C6.5,10.8 5.9,10.56 5.5,10.32 C5.5,11.76 7.6,13.392 9,13.68 C8.5,14.16 6.7,13.728 6.5,13.68 C6.9,14.832 8.15,15.552 9.5,15.6 C8.45,16.368 7.2,16.8 5.75,16.8 C5.5,16.8 5.25,16.8 5,16.752 C6.35,17.568 8.25,18 10,18 C15.65,18 18.5,13.728 18.5,9.84 C18.5,9.696 18.5,9.504 18.5,9.36 C19.1,8.928 19.6,8.352 20,7.776 Z"/>
</svg>
