<svg xmlns="http://www.w3.org/2000/svg" width="24" height="24" viewBox="0 0 24 24">
  <path fill="#4E5E6C" fill-rule="evenodd" d="M10,0 C15.52,0 20,4.48 20,10 C20,15.52 15.52,20 10,20 C4.48,20 0,15.52 0,10 C0,4.48 4.48,0 10,0 Z M15.0757121,5.61863424 L8.14375543,12.4597717 L4.93120931,9.32600129 C4.58344273,8.98676238 4.02889068,8.985783 3.67992802,9.32379143 L3.65332135,9.34956289 C3.30259114,9.68928339 3.29366601,10.2490043 3.6333865,10.5997345 L3.65108209,10.6174927 L3.65108209,10.6174927 L8.14375543,15 L16.3547597,6.90198729 C16.7042898,6.55726699 16.708189,5.99446579 16.3634687,5.64493561 L16.3512795,5.63281305 L16.3512795,5.63281305 L16.3329947,5.61497659 C15.9828932,5.27346005 15.4238206,5.27508649 15.0757121,5.61863424 Z" transform="translate(2 2)"/>
</svg>
