<svg xmlns="http://www.w3.org/2000/svg" width="24" height="24" viewBox="0 0 24 24">
  <g fill="none" fill-rule="evenodd">
    <rect width="20" height="20" x="2" y="2" fill="#FFF"/>
    <rect width="19" height="19" x="2.5" y="2.5" stroke="#424B5A"/>
    <path fill="#4E5E6C" d="M5.11969376,7.30935172 L2.23200988,4.40403463 C1.9069734,4.07701336 1.37837615,4.07540437 1.05135488,4.40044086 C1.05085075,4.40094193 1.05034726,4.40144364 1.04984441,4.401946 C0.722575831,4.72889421 0.721639191,5.2590322 1.04775043,5.5871348 L5.11969376,9.68394283 L5.11969376,9.68394283 L12.561735,2.11386523 C12.8857482,1.78427753 12.8842977,1.25535476 12.5584816,0.927549148 C12.2376039,0.604712052 11.71577,0.603123651 11.3929329,0.924001356 C11.3906129,0.926307296 11.3883066,0.928627028 11.3860142,0.930960428 L5.11969376,7.30935172 L5.11969376,7.30935172 Z" transform="translate(5 7)"/>
  </g>
</svg>
