<svg xmlns="http://www.w3.org/2000/svg" width="24" height="24" viewBox="0 0 24 24">
  <path fill="#021D49" fill-rule="evenodd" d="M17.0932773,6.08319328 L17.0932773,6.08319328 C17.0932773,6.22436975 17.0882353,6.36554622 17.0781513,6.50672269 C17.0731092,6.57731092 17.0655462,6.64537815 17.0579832,6.71596639 C17.0605042,6.76134454 17.0453782,6.81428571 17.0378151,6.85462185 C16.992437,7.13445378 16.9243697,7.41176471 16.8361345,7.68151261 C16.7932773,7.81008403 16.7453782,7.93613445 16.697479,8.05966387 C16.6546218,8.16806723 16.7453782,7.95630252 16.694958,8.06218487 C16.6823529,8.09243697 16.6672269,8.12268908 16.6546218,8.15294118 C16.6218487,8.22352941 16.5890756,8.29411765 16.5512605,8.36218487 C16.4302521,8.59915966 16.2915966,8.82605042 16.1378151,9.04285714 C16.105042,9.0907563 16.0672269,9.16638655 16.0193277,9.20168067 C15.9966387,9.22941176 15.9764706,9.25462185 15.9537815,9.27983193 C15.8630252,9.3907563 15.7672269,9.49663866 15.6663866,9.59747899 C15.5756303,9.69327731 15.4798319,9.78403361 15.3815126,9.87226891 C15.3310924,9.91512605 15.2831933,9.9605042 15.2327731,10.0008403 C15.207563,10.0210084 15.1823529,10.0436975 15.1571429,10.0638655 C15.1394958,10.0764706 15.1218487,10.0915966 15.1042017,10.1042017 C15.1621849,10.0588235 15.1697479,10.0537815 15.1268908,10.0865546 C14.912605,10.2453782 14.6932773,10.3915966 14.4613445,10.5176471 C14.3453782,10.5831933 14.2268908,10.6411765 14.1058824,10.6991597 C14.0756303,10.7142857 14.0453782,10.7268908 14.0151261,10.7394958 C13.9067227,10.787395 14.1210084,10.6966387 14.012605,10.7420168 C13.9394958,10.7722689 13.8663866,10.8 13.7932773,10.8277311 C13.5260504,10.9235294 13.2537815,10.9991597 12.9764706,11.0546218 C12.9084034,11.0672269 12.8403361,11.0798319 12.7722689,11.089916 C12.7420168,11.094958 12.7016807,11.107563 12.6689076,11.105042 C12.7697479,11.112605 12.7394958,11.094958 12.6991597,11.1 C12.5478992,11.1151261 12.3966387,11.1302521 12.2453782,11.1352941 C11.9504202,11.1453782 11.6605042,11.1302521 11.3680672,11.1 C11.3302521,11.094958 11.297479,11.089916 11.2621849,11.0848739 C11.1941176,11.0747899 11.1260504,11.0621849 11.0605042,11.0470588 C10.9168067,11.0168067 10.7731092,10.9815126 10.6294118,10.9411765 C10.5008403,10.9033613 10.3722689,10.8630252 10.2436975,10.8151261 C10.1907563,10.794958 10.1378151,10.7747899 10.087395,10.7546218 C10.0773109,10.7495798 10.0672269,10.7470588 10.0571429,10.7420168 C10.0067227,10.7218487 10.0168067,10.7243697 10.0848739,10.7546218 C10.0521008,10.7546218 9.99159664,10.7142857 9.96386555,10.6991597 C9.71176471,10.5831933 9.4697479,10.4495798 9.23781513,10.2957983 C9.18235294,10.2605042 9.12689076,10.2226891 9.07394958,10.1848739 C9.02605042,10.1521008 8.95042017,10.1142857 8.91512605,10.0663866 C8.98319328,10.1546218 8.95042017,10.0941176 8.91260504,10.0638655 C8.88739496,10.0436975 8.86218487,10.0235294 8.83697479,10.0008403 C8.7789916,9.95042017 8.71848739,9.9 8.66302521,9.84957983 C8.46638655,9.67310924 8.28487395,9.48151261 8.11596639,9.27983193 C8.09579832,9.25462185 8.07310924,9.22941176 8.05294118,9.20420168 C8.02268908,9.16638655 7.95966387,9.13361345 8.05042017,9.20168067 C8.00504202,9.16638655 7.96722689,9.08823529 7.93193277,9.04285714 C7.8487395,8.92689076 7.77058824,8.80588235 7.69747899,8.68235294 C7.62941176,8.56890756 7.56386555,8.45294118 7.50588235,8.33193277 C7.47563025,8.27142857 7.44789916,8.21344538 7.41764706,8.15294118 C7.40252101,8.12268908 7.38991597,8.09243697 7.37731092,8.06218487 C7.35462185,8.01176471 7.35966387,8.02184874 7.38739496,8.08991597 C7.37983193,8.0697479 7.3697479,8.04957983 7.36218487,8.02689076 C7.26134454,7.77731092 7.17815126,7.51764706 7.11512605,7.25546218 C7.08235294,7.12184874 7.05462185,6.98823529 7.03445378,6.85210084 C7.02941176,6.81680672 7.02436975,6.78403361 7.01932773,6.7487395 C7.01176471,6.66554622 7.00168067,6.58487395 6.99663866,6.50420168 C6.97394958,6.21176471 6.97647059,5.91680672 6.99915966,5.62436975 C7.00420168,5.55378151 7.01176471,5.48571429 7.01932773,5.41512605 C7.02436975,5.37731092 7.02941176,5.34453782 7.03445378,5.3092437 C7.05966387,5.16302521 7.08739496,5.01680672 7.12521008,4.87310924 C7.1907563,4.61092437 7.27647059,4.35378151 7.37731092,4.10420168 C7.39243697,4.07142857 7.40756303,4.04117647 7.42016807,4.01092437 C7.44789916,3.95042017 7.47815126,3.88991597 7.50840336,3.83193277 C7.57394958,3.70336134 7.64453782,3.57731092 7.71764706,3.45378151 C7.78571429,3.34033613 7.85882353,3.22941176 7.93697479,3.1210084 C7.9697479,3.07310924 8.00756303,2.99747899 8.05546218,2.96218487 C7.96722689,3.0302521 8.02773109,2.99747899 8.05798319,2.95966387 C8.08571429,2.92436975 8.11344538,2.89159664 8.14117647,2.85882353 C8.31008403,2.65714286 8.49663866,2.46806723 8.69327731,2.29159664 C8.74369748,2.2487395 8.79159664,2.20336134 8.84201681,2.16302521 C8.86722689,2.14285714 8.89243697,2.12016807 8.91764706,2.1 C8.95546218,2.05210084 9.03361345,2.01428571 9.0789916,1.9789916 C9.14201681,1.93361345 9.20504202,1.8907563 9.27058824,1.84789916 C9.50252101,1.69663866 9.74705882,1.56302521 9.99915966,1.44957983 C10.0193277,1.4394958 10.0672269,1.4092437 10.089916,1.4092437 C10.0697479,1.41680672 10.0495798,1.42689076 10.0319328,1.43445378 C10.0521008,1.42689076 10.0722689,1.41680672 10.094958,1.4092437 C10.1478992,1.38907563 10.1983193,1.36890756 10.2512605,1.3487395 C10.387395,1.29831933 10.5285714,1.25294118 10.6697479,1.21260504 C10.8008403,1.17478992 10.9344538,1.14453782 11.0680672,1.11680672 C11.1361345,1.10420168 11.2042017,1.09159664 11.2697479,1.0789916 C11.305042,1.07394958 11.3378151,1.06890756 11.3731092,1.06386555 C11.4285714,1.05630252 11.4184874,1.05630252 11.3428571,1.06890756 C11.3655462,1.06638655 11.3882353,1.06386555 11.4109244,1.06134454 C11.7033613,1.02857143 11.9957983,1.01848739 12.2907563,1.03109244 C12.4243697,1.03613445 12.5579832,1.0487395 12.6915966,1.06386555 C12.7369748,1.06890756 12.794958,1.05378151 12.6789916,1.06134454 C12.7092437,1.05882353 12.7495798,1.07142857 12.7823529,1.07647059 C12.8605042,1.08907563 12.9411765,1.10420168 13.0193277,1.11932773 C13.2966387,1.17478992 13.5689076,1.25294118 13.8336134,1.3512605 C13.8966387,1.37394958 13.9596639,1.39915966 14.0201681,1.42436975 C14.0529412,1.4394958 14.0831933,1.45462185 14.1134454,1.46722689 C14.2445378,1.52773109 14.3731092,1.59327731 14.4991597,1.66386555 C14.6151261,1.72941176 14.7285714,1.79747899 14.8394958,1.87058824 C14.8848739,1.90084034 14.9302521,1.93109244 14.9756303,1.96386555 C15.0310924,2.00168067 15.1218487,2.04705882 15.1621849,2.1 C15.0941176,2.01176471 15.1268908,2.07226891 15.1647059,2.10252101 C15.189916,2.12268908 15.2151261,2.14285714 15.2403361,2.16554622 C15.2907563,2.20840336 15.3411765,2.2512605 15.3890756,2.29411765 C15.494958,2.38991597 15.5983193,2.48823529 15.6966387,2.59159664 C15.787395,2.68739496 15.8756303,2.78571429 15.9613445,2.88655462 C15.9815126,2.91176471 16.0042017,2.93697479 16.0243697,2.96218487 C16.0798319,3.00504202 16.1252101,3.09579832 16.1630252,3.1512605 C16.3142857,3.36806723 16.4529412,3.59747899 16.5714286,3.83445378 C16.6016807,3.89495798 16.6294118,3.95294118 16.6596639,4.01344538 C16.6747899,4.04369748 16.687395,4.07394958 16.7,4.10420168 C16.7554622,4.24285714 16.8084034,4.3789916 16.8512605,4.51764706 C16.9369748,4.78739496 17.005042,5.06470588 17.0478992,5.34705882 C17.0529412,5.37731092 17.0655462,5.41764706 17.0630252,5.45042017 C17.0705882,5.52352941 17.0781513,5.59159664 17.0831933,5.66218487 C17.0857143,5.80084034 17.0907563,5.94201681 17.0932773,6.08319328 M18.1016807,6.08319328 C18.0966387,4.84789916 17.7210084,3.60756303 17,2.59915966 C16.2714286,1.58067227 15.2680672,0.809243697 14.0932773,0.375630252 C12.9159664,-0.0579831933 11.5848739,-0.0983193277 10.3798319,0.244537815 C9.21764706,0.574789916 8.1487395,1.26302521 7.37983193,2.19579832 C6.57058824,3.18151261 6.08655462,4.37142857 5.98571429,5.64201681 C5.88739496,6.88235294 6.19747899,8.15798319 6.84285714,9.22184874 C7.46554622,10.2478992 8.40336134,11.1 9.50252101,11.5941176 C10.6823529,12.1260504 11.9857143,12.2773109 13.2588235,12.0252101 C14.4487395,11.7882353 15.5655462,11.1655462 16.405042,10.2907563 C17.2470588,9.41344538 17.8319328,8.27647059 18.0184874,7.07142857 C18.0689076,6.74369748 18.1016807,6.41344538 18.1016807,6.08319328 M20.3403361,22.9764706 C20.1235294,22.9764706 19.9092437,22.9764706 19.692437,22.9764706 C19.1201681,22.9764706 18.5453782,22.9764706 17.9731092,22.9764706 C17.1537815,22.9764706 16.3344538,22.9764706 15.5151261,22.9764706 C14.5596639,22.9764706 13.6067227,22.9764706 12.6512605,22.9764706 C11.6731092,22.9764706 10.697479,22.9764706 9.71932773,22.9764706 C8.82941176,22.9764706 7.9394958,22.9764706 7.05210084,22.9764706 C6.36134454,22.9764706 5.67310924,22.9764706 4.98235294,22.9764706 C4.60420168,22.9764706 4.22605042,22.9764706 3.84537815,22.9764706 C3.81260504,22.9764706 3.77983193,22.9764706 3.74705882,22.9764706 C3.74201681,22.9764706 3.73445378,22.9764706 3.72941176,22.9764706 C3.70672269,22.9764706 3.68151261,22.9764706 3.65882353,22.9739496 C3.66386555,22.9739496 3.5907563,22.9714286 3.5907563,22.9689076 C3.58823529,22.9638655 3.72184874,22.9941176 3.62352941,22.9714286 C3.58067227,22.9613445 3.53529412,22.9512605 3.49243697,22.9386555 C3.47731092,22.9336134 3.45966387,22.9235294 3.44453782,22.9235294 C3.38151261,22.9134454 3.52773109,22.9714286 3.47226891,22.9361345 C3.4394958,22.9159664 3.40420168,22.9008403 3.37142857,22.8831933 C3.33865546,22.8630252 3.30840336,22.8403361 3.27563025,22.8201681 C3.22773109,22.792437 3.31596639,22.8453782 3.31344538,22.8504202 C3.31092437,22.8529412 3.25798319,22.802521 3.25294118,22.797479 C3.22521008,22.7722689 3.2,22.7420168 3.17478992,22.7142857 C3.11428571,22.6537815 3.22268908,22.794958 3.16470588,22.6991597 C3.14453782,22.6663866 3.12436975,22.6361345 3.10420168,22.6008403 C3.09411765,22.5806723 3.08403361,22.5605042 3.07394958,22.5428571 C3.03613445,22.4697479 3.08655462,22.5731092 3.08655462,22.5731092 C3.06386555,22.5756303 3.03613445,22.3689076 3.02352941,22.3462185 C3.05882353,22.4117647 3.03109244,22.4319328 3.02857143,22.3789916 C3.02857143,22.3563025 3.02605042,22.3336134 3.02352941,22.3084034 C3.02352941,22.2957983 3.02352941,22.2831933 3.02352941,22.2705882 C3.02352941,22.2428571 3.02352941,22.2176471 3.02352941,22.189916 C3.02352941,21.3731092 3.02352941,20.5563025 3.02352941,19.7369748 C3.02352941,19.6235294 3.02352941,19.512605 3.02352941,19.3991597 C3.02352941,19.1445378 3.06386555,18.894958 3.06890756,18.6428571 C3.06890756,18.6428571 3.05378151,18.7487395 3.06134454,18.6907563 C3.06386555,18.6680672 3.06890756,18.6453782 3.07142857,18.6226891 C3.07647059,18.5823529 3.08403361,18.5420168 3.09159664,18.5042017 C3.10672269,18.4184874 3.12184874,18.3352941 3.14201681,18.2521008 C3.17731092,18.0907563 3.22016807,17.9319328 3.26806723,17.7756303 C3.31848739,17.6142857 3.37647059,17.4579832 3.4394958,17.3016807 C3.47226891,17.2184874 3.39663866,17.4 3.44705882,17.2840336 C3.46218487,17.2487395 3.47983193,17.2134454 3.49495798,17.1781513 C3.5302521,17.102521 3.56806723,17.0268908 3.60588235,16.9537815 C3.75714286,16.6638655 3.93361345,16.3915966 4.12773109,16.1268908 C4.18067227,16.0563025 4.06722689,16.2 4.14033613,16.1117647 C4.16554622,16.0815126 4.18823529,16.0512605 4.21344538,16.0210084 C4.26638655,15.9579832 4.31932773,15.894958 4.37478992,15.8344538 C4.48571429,15.7109244 4.60168067,15.594958 4.72268908,15.4815126 C4.83865546,15.3731092 4.96218487,15.2697479 5.08571429,15.1689076 C5.15378151,15.1134454 5.01008403,15.2243697 5.10084034,15.1563025 C5.13109244,15.1336134 5.16386555,15.1109244 5.19411765,15.0882353 C5.26470588,15.0378151 5.33781513,14.987395 5.41344538,14.9394958 C5.68319328,14.7630252 5.96806723,14.6142857 6.2605042,14.4806723 C6.34117647,14.4428571 6.17226891,14.5159664 6.27815126,14.4731092 C6.31344538,14.4579832 6.3512605,14.4428571 6.38655462,14.4302521 C6.4697479,14.397479 6.55546218,14.3672269 6.64117647,14.3394958 C6.79747899,14.2890756 6.95378151,14.2436975 7.11512605,14.2058824 C7.27647059,14.1680672 7.44033613,14.1352941 7.60420168,14.110084 C7.62184874,14.107563 7.65462185,14.097479 7.67226891,14.1 C7.67478992,14.1 7.56638655,14.112605 7.62436975,14.107563 C7.66470588,14.102521 7.70504202,14.097479 7.74537815,14.094958 C7.83865546,14.0848739 7.93193277,14.0773109 8.02521008,14.0722689 C8.21680672,14.0621849 8.41092437,14.0647059 8.60252101,14.0647059 C9.31092437,14.0647059 10.0193277,14.0647059 10.7277311,14.0647059 C11.6907563,14.0647059 12.6512605,14.0647059 13.6142857,14.0647059 C14.2672269,14.0647059 14.9201681,14.0647059 15.5731092,14.0647059 C15.6235294,14.0647059 15.6714286,14.0647059 15.7218487,14.0647059 C15.9714286,14.0647059 16.2184874,14.105042 16.4655462,14.110084 C16.4655462,14.110084 16.3596639,14.094958 16.4176471,14.102521 C16.4403361,14.105042 16.4630252,14.110084 16.4857143,14.112605 C16.5260504,14.1176471 16.5663866,14.1252101 16.6042017,14.1327731 C16.689916,14.1478992 16.7731092,14.1630252 16.8563025,14.1831933 C17.0176471,14.2184874 17.1764706,14.2613445 17.3327731,14.3092437 C17.4941176,14.3596639 17.6504202,14.4176471 17.8067227,14.4806723 C17.889916,14.5134454 17.7084034,14.4378151 17.8243697,14.4882353 C17.8596639,14.5033613 17.894958,14.5210084 17.9302521,14.5361345 C18.0058824,14.5714286 18.0815126,14.6092437 18.1546218,14.6470588 C18.4445378,14.7983193 18.7168067,14.9747899 18.9815126,15.1689076 C19.0521008,15.2218487 18.9084034,15.1084034 18.9966387,15.1815126 C19.0268908,15.2067227 19.0571429,15.2294118 19.087395,15.2546218 C19.1504202,15.307563 19.2134454,15.3605042 19.2739496,15.4159664 C19.397479,15.5268908 19.5134454,15.6428571 19.6268908,15.7638655 C19.7352941,15.8798319 19.8386555,16.0033613 19.9394958,16.1268908 C19.994958,16.194958 19.8840336,16.0512605 19.9521008,16.1420168 C19.9747899,16.1722689 19.997479,16.205042 20.0201681,16.2352941 C20.0705882,16.3058824 20.1210084,16.3789916 20.1689076,16.4546218 C20.3453782,16.7243697 20.4941176,17.0092437 20.6277311,17.3016807 C20.6655462,17.3823529 20.592437,17.2134454 20.6352941,17.3193277 C20.6504202,17.3546218 20.6655462,17.392437 20.6781513,17.4277311 C20.7109244,17.5109244 20.7411765,17.5966387 20.7689076,17.6823529 C20.8193277,17.8386555 20.8647059,17.994958 20.902521,18.1563025 C20.9403361,18.3176471 20.9731092,18.4815126 20.9983193,18.6453782 C21.0008403,18.6630252 21.0109244,18.6957983 21.0084034,18.7134454 C21.0084034,18.7159664 20.9957983,18.607563 21.0008403,18.6655462 C21.0058824,18.7058824 21.0109244,18.7462185 21.0134454,18.7865546 C21.0235294,18.8798319 21.0310924,18.9731092 21.0361345,19.0663866 C21.0512605,19.3638655 21.0436975,19.6613445 21.0436975,19.9588235 C21.0436975,20.7277311 21.0512605,21.4966387 21.0436975,22.2655462 C21.0436975,22.2806723 21.0436975,22.2957983 21.0436975,22.3109244 C21.0436975,22.3285714 21.0336134,22.4647059 21.0411765,22.3815126 C21.0487395,22.2983193 21.0285714,22.4268908 21.0235294,22.4470588 C21.0210084,22.4571429 20.9907563,22.5756303 20.9831933,22.5731092 C20.9756303,22.5731092 21.0336134,22.4798319 21.0008403,22.5277311 C20.9932773,22.5403361 20.9857143,22.5579832 20.9781513,22.5731092 C20.9579832,22.6109244 20.9352941,22.6487395 20.912605,22.6865546 C20.905042,22.6991597 20.892437,22.7117647 20.8848739,22.7268908 C20.8546218,22.7823529 20.9504202,22.6588235 20.902521,22.7016807 C20.8747899,22.7268908 20.8521008,22.7596639 20.8243697,22.7848739 C20.8117647,22.797479 20.7991597,22.807563 20.7890756,22.8176471 C20.7840336,22.8201681 20.7815126,22.8252101 20.7764706,22.8277311 C20.7588235,22.8428571 20.7411765,22.8554622 20.7210084,22.8655462 C20.6882353,22.8857143 20.6554622,22.9033613 20.6201681,22.9210084 C20.5218487,22.9739496 20.6882353,22.9033613 20.602521,22.9285714 C20.5647059,22.9386555 20.5294118,22.9512605 20.4890756,22.9613445 C20.4714286,22.9663866 20.4563025,22.9689076 20.4386555,22.9714286 C20.3403361,22.9941176 20.4739496,22.9638655 20.4714286,22.9689076 C20.4739496,22.9789916 20.3554622,22.9764706 20.3403361,22.9764706 M20.3403361,23.9848739 C21.2504202,23.9722689 21.9739496,23.2739496 22.0495798,22.3739496 C22.0722689,22.0966387 22.0546218,21.8117647 22.0546218,21.5344538 C22.0546218,20.7680672 22.0722689,20.0016807 22.0521008,19.2352941 C22.0168067,17.7756303 21.4747899,16.3789916 20.5344538,15.2672269 C19.6369748,14.2033613 18.3537815,13.4445378 16.987395,13.1773109 C16.3193277,13.0462185 15.6563025,13.0512605 14.9806723,13.0512605 C14.1159664,13.0512605 13.2487395,13.0512605 12.3840336,13.0512605 C11.4462185,13.0512605 10.5084034,13.0512605 9.56806723,13.0512605 C9.08655462,13.0512605 8.60504202,13.0386555 8.12352941,13.0563025 C6.66890756,13.1092437 5.27731092,13.6638655 4.17563025,14.6142857 C3.12184874,15.5243697 2.37563025,16.8151261 2.12352941,18.1865546 C1.95966387,19.0714286 2.01008403,19.9815126 2.01008403,20.8764706 C2.01008403,21.289916 2.01008403,21.7008403 2.01008403,22.1142857 C2.01008403,22.2252101 2.01008403,22.3336134 2.02268908,22.4445378 C2.07563025,22.8705882 2.26218487,23.2815126 2.59747899,23.5613445 C2.93529412,23.8436975 3.33613445,23.987395 3.77731092,23.987395 C3.89579832,23.987395 4.01176471,23.987395 4.1302521,23.987395 C4.64957983,23.987395 5.16890756,23.987395 5.68823529,23.987395 C6.48739496,23.987395 7.28655462,23.987395 8.08571429,23.987395 C9.04117647,23.987395 9.99663866,23.987395 10.9521008,23.987395 C11.9529412,23.987395 12.9563025,23.987395 13.9571429,23.987395 C14.8798319,23.987395 15.8,23.987395 16.7226891,23.987395 C17.4537815,23.987395 18.187395,23.987395 18.9184874,23.987395 C19.3369748,23.987395 19.7554622,23.987395 20.1739496,23.987395 C20.2294118,23.987395 20.2848739,23.987395 20.3378151,23.987395"/>
</svg>
