<svg xmlns="http://www.w3.org/2000/svg" width="24" height="24" viewBox="0 0 24 24">
  <path fill="#4E5E6C" fill-rule="evenodd" d="M16.261958,12.543382 L10.7308526,2.98965444 C10.1774232,2.03373096 8.95385094,1.70744503 7.99792746,2.26087441 C7.69550442,2.43596143 7.44423445,2.6872314 7.26914743,2.98965444 L1.738042,12.543382 C1.18461261,13.4993055 1.51089855,14.7228777 2.46682203,15.2763071 C2.77135272,15.4526144 3.11700938,15.5454545 3.46889457,15.5454545 L14.5311054,15.5454545 C15.6356749,15.5454545 16.5311054,14.650024 16.5311054,13.5454545 C16.5311054,13.1935694 16.4382652,12.8479127 16.261958,12.543382 Z M8.18181818,13.0909091 L8.18181818,11.4545455 L9.81818182,11.4545455 L9.81818182,13.0909091 L8.18181818,13.0909091 Z M8.18181818,9.81818182 L8.18181818,6.54545455 L9.81818182,6.54545455 L9.81818182,9.81818182 L8.18181818,9.81818182 Z" transform="translate(3 4)"/>
</svg>
