<svg xmlns="http://www.w3.org/2000/svg" width="173" height="49" viewBox="0 0 173 49"><g fill="none" fill-rule="evenodd"><path fill="rgb(9 29 73 / 61%)" d="M0 36.5h173v12.18H0z"></path><path fill="#232F63" fill-rule="nonzero" d="M60.07 40.504c1.365 0 1.708.35 1.708 1.077v.142h-.518c-.01-.65-.08-.767-1.524-.767h-.585c-1.06 0-1.44.056-1.44.727 0 .485.153.65 1.014.65h1.63c1.075 0 1.525.31 1.525 1.002v.265c0 1.003-.822 1.076-1.637 1.076h-1.53c-.804 0-1.513-.14-1.513-1.03v-.3h.518v.287c0 .4.214.59.9.59h1.71c.798 0 1.035-.168 1.035-.754 0-.514-.203-.644-.89-.644h-1.045c-1.682 0-2.233-.1-2.233-1.184 0-.93.55-1.138 1.687-1.138h1.187zm-19.76.044c1.175 0 1.36.39 1.36 1.156v.334c0 .574-.326.732-.747.772v.01c.562.102.697.395.697.768v1.043h-.517v-.896c0-.637-.31-.716-.81-.716h-2.688v1.613h-.552V40.55h3.257zm28.014 0v4.083h-.552V40.55h.552zm9.25 0c1.367 0 1.74.43 1.74 2.042 0 1.5-.373 2.04-1.756 2.04h-3.273V40.55h3.29zm18.164 0l3.73 3.586v-3.586h.55v4.083h-.82l-3.73-3.585v3.586h-.55V40.55h.82zm14.453 0v.45h-2.058v3.633h-.55V41h-2.06v-.452h4.67zm6.106 0v4.083h-.552V40.55h.552zm8.645 0l2.42 4.083h-.625l-.506-.862h-3.264l-.506.863h-.624l2.418-4.082h.687zm8.497 0v3.632h3.16v.45h-3.712V40.55h.552zm-81.897 0v.45h-3.448v1.304h3.313v.45h-3.313v1.427h3.47v.45h-4.02v-4.082h3.998zm37.648 0v.45H85.74v1.304h3.313v.45H85.74v1.427h3.47v.45h-4.02v-4.082h3.998zM77.722 41h-2.885v3.18h2.795c.67 0 1.13-.147 1.13-1.37v-.418c0-1.178-.365-1.392-1.04-1.392zm46.876 0l-1.366 2.317h2.733L124.598 41zm-84.485 0h-2.508v1.567h2.643c.613 0 .872-.164.872-.593v-.37c0-.458-.197-.605-1.007-.605z"></path><path fill="#021D49" d="M0 0h172.705v34.44H0z"></path><path fill="#FFF" fill-rule="nonzero" d="M81.195 10.457c2.544 0 5.266.628 5.266 3.906v.51h-1.8c0-2.65-.803-2.846-5.54-2.846h-4.973c-1.84 0-3.328.55-3.328 3.022v5.337c0 2.473 1.487 3.022 3.327 3.022h7.497c1.92 0 3.093-.668 3.093-2.63v-1.433h-7.262v-1.57h9.18v1.963c0 3.866-1.252 5.24-4.795 5.24h-7.91c-3.836 0-5.05-1.726-5.05-5.318v-3.886c0-3.59 1.214-5.32 5.05-5.32h7.245zm20.057.158c4.09 0 4.737 1.354 4.737 4.024v1.157c0 2-1.136 2.55-2.604 2.688v.04c1.957.352 2.428 1.373 2.428 2.668v3.63h-1.8v-3.12c0-2.217-1.078-2.492-2.82-2.492h-9.357v5.614h-1.92v-14.21h11.335zm44.655 0l12.978 12.482V10.615h1.92v14.21h-2.86L144.967 12.34v12.482h-1.92v-14.21h2.86zm-131.224 0v14.21h-1.92v-14.21h1.92zm13.035 0l8.418 14.21h-2.173L32.2 21.82H20.848l-1.762 3.004h-2.173l8.418-14.21h2.388zm13.325 0L54.02 23.097V10.615h1.92v14.21h-2.86L40.104 12.34v12.482h-1.92v-14.21h2.86zm82.225 0v1.57h-12v4.533h11.53v1.57h-11.53v4.965h12.08v1.57H109.35V10.615h13.918zm16.908 0v1.57h-12v4.533h11.53v1.57h-11.53v4.965h12.08v1.57h-13.998V10.615h13.918zm-113.652 1.57l-4.757 8.065h9.514l-4.756-8.065zm74.042 0h-8.73v5.456h9.2c2.134 0 3.035-.57 3.035-2.06v-1.295c0-1.59-.684-2.1-3.504-2.1z"></path></g></svg>
